ISO-10303-21;
HEADER;
/* Generated by software containing ST-Developer
 * from STEP Tools, Inc. (www.steptools.com) 
 */
/* OPTION: using custom renumber hook */

FILE_DESCRIPTION(
/* description */ ('STEP AP242 Edition 2',
'CAx-IF Rec.Pracs.---Representation and Presentation of Product Manufa
cturing Information (PMI)---4.0---2014-10-13',
'CAx-IF Rec.Pracs.---3D Tessellated Geometry---0.4---2014-09-14','2;1',
'CAx-IF Rec.Pracs.---User Defined Attributes---1.5---2016-08-15'),
/* implementation_level */ '2;1');

FILE_NAME(
/* name */ 'Part Studio 1',
/* time_stamp */ '2026-08-07T21:12:12Z',
/* author */ (''),
/* organization */ (''),
/* preprocessor_version */ 'ST-DEVELOPER v20',
/* originating_system */ 'ONSHAPE BY PTC INC, 1.219',
/* authorisation */ '  ');

FILE_SCHEMA (('AP242_MANAGED_MODEL_BASED_3D_ENGINEERING_MIM_LF { 1 0 10303 442 3 1 4 }'));
ENDSEC;

DATA;
#10=SHAPE_REPRESENTATION_RELATIONSHIP('','',#1126,#12);
#11=SHAPE_REPRESENTATION_RELATIONSHIP('','',#1127,#13);
#12=ADVANCED_BREP_SHAPE_REPRESENTATION('',(#1122),#1778);
#13=ADVANCED_BREP_SHAPE_REPRESENTATION('',(#1123),#1779);
#14=CYLINDRICAL_SURFACE('',#1153,0.0011);
#15=CYLINDRICAL_SURFACE('',#1154,0.0011);
#16=CYLINDRICAL_SURFACE('',#1155,0.0011);
#17=CYLINDRICAL_SURFACE('',#1156,0.0011);
#18=CIRCLE('',#1143,0.0011);
#19=CIRCLE('',#1144,0.0011);
#20=CIRCLE('',#1145,0.0011);
#21=CIRCLE('',#1146,0.0011);
#22=CIRCLE('',#1148,0.0011);
#23=CIRCLE('',#1149,0.0011);
#24=CIRCLE('',#1150,0.0011);
#25=CIRCLE('',#1151,0.0011);
#26=ORIENTED_EDGE('',*,*,#318,.T.);
#27=ORIENTED_EDGE('',*,*,#319,.F.);
#28=ORIENTED_EDGE('',*,*,#320,.F.);
#29=ORIENTED_EDGE('',*,*,#321,.T.);
#30=ORIENTED_EDGE('',*,*,#322,.T.);
#31=ORIENTED_EDGE('',*,*,#323,.F.);
#32=ORIENTED_EDGE('',*,*,#324,.F.);
#33=ORIENTED_EDGE('',*,*,#319,.T.);
#34=ORIENTED_EDGE('',*,*,#325,.F.);
#35=ORIENTED_EDGE('',*,*,#326,.F.);
#36=ORIENTED_EDGE('',*,*,#327,.T.);
#37=ORIENTED_EDGE('',*,*,#323,.T.);
#38=ORIENTED_EDGE('',*,*,#328,.F.);
#39=ORIENTED_EDGE('',*,*,#329,.F.);
#40=ORIENTED_EDGE('',*,*,#330,.T.);
#41=ORIENTED_EDGE('',*,*,#331,.T.);
#42=ORIENTED_EDGE('',*,*,#332,.T.);
#43=ORIENTED_EDGE('',*,*,#333,.F.);
#44=ORIENTED_EDGE('',*,*,#334,.F.);
#45=ORIENTED_EDGE('',*,*,#329,.T.);
#46=ORIENTED_EDGE('',*,*,#335,.F.);
#47=ORIENTED_EDGE('',*,*,#336,.F.);
#48=ORIENTED_EDGE('',*,*,#337,.T.);
#49=ORIENTED_EDGE('',*,*,#333,.T.);
#50=ORIENTED_EDGE('',*,*,#338,.T.);
#51=ORIENTED_EDGE('',*,*,#339,.F.);
#52=ORIENTED_EDGE('',*,*,#340,.F.);
#53=ORIENTED_EDGE('',*,*,#336,.T.);
#54=ORIENTED_EDGE('',*,*,#341,.F.);
#55=ORIENTED_EDGE('',*,*,#342,.F.);
#56=ORIENTED_EDGE('',*,*,#343,.T.);
#57=ORIENTED_EDGE('',*,*,#339,.T.);
#58=ORIENTED_EDGE('',*,*,#344,.F.);
#59=ORIENTED_EDGE('',*,*,#345,.F.);
#60=ORIENTED_EDGE('',*,*,#346,.T.);
#61=ORIENTED_EDGE('',*,*,#342,.T.);
#62=ORIENTED_EDGE('',*,*,#347,.T.);
#63=ORIENTED_EDGE('',*,*,#348,.F.);
#64=ORIENTED_EDGE('',*,*,#349,.F.);
#65=ORIENTED_EDGE('',*,*,#345,.T.);
#66=ORIENTED_EDGE('',*,*,#350,.F.);
#67=ORIENTED_EDGE('',*,*,#351,.F.);
#68=ORIENTED_EDGE('',*,*,#352,.T.);
#69=ORIENTED_EDGE('',*,*,#348,.T.);
#70=ORIENTED_EDGE('',*,*,#353,.T.);
#71=ORIENTED_EDGE('',*,*,#354,.T.);
#72=ORIENTED_EDGE('',*,*,#355,.F.);
#73=ORIENTED_EDGE('',*,*,#351,.T.);
#74=ORIENTED_EDGE('',*,*,#356,.F.);
#75=ORIENTED_EDGE('',*,*,#321,.F.);
#76=ORIENTED_EDGE('',*,*,#357,.T.);
#77=ORIENTED_EDGE('',*,*,#326,.T.);
#78=ORIENTED_EDGE('',*,*,#358,.F.);
#79=ORIENTED_EDGE('',*,*,#359,.F.);
#80=ORIENTED_EDGE('',*,*,#360,.F.);
#81=ORIENTED_EDGE('',*,*,#361,.F.);
#82=ORIENTED_EDGE('',*,*,#362,.T.);
#83=ORIENTED_EDGE('',*,*,#330,.F.);
#84=ORIENTED_EDGE('',*,*,#334,.T.);
#85=ORIENTED_EDGE('',*,*,#337,.F.);
#86=ORIENTED_EDGE('',*,*,#340,.T.);
#87=ORIENTED_EDGE('',*,*,#343,.F.);
#88=ORIENTED_EDGE('',*,*,#346,.F.);
#89=ORIENTED_EDGE('',*,*,#349,.T.);
#90=ORIENTED_EDGE('',*,*,#352,.F.);
#91=ORIENTED_EDGE('',*,*,#355,.T.);
#92=ORIENTED_EDGE('',*,*,#320,.T.);
#93=ORIENTED_EDGE('',*,*,#324,.T.);
#94=ORIENTED_EDGE('',*,*,#327,.F.);
#95=ORIENTED_EDGE('',*,*,#357,.F.);
#96=ORIENTED_EDGE('',*,*,#363,.T.);
#97=ORIENTED_EDGE('',*,*,#364,.T.);
#98=ORIENTED_EDGE('',*,*,#365,.T.);
#99=ORIENTED_EDGE('',*,*,#366,.T.);
#100=ORIENTED_EDGE('',*,*,#328,.T.);
#101=ORIENTED_EDGE('',*,*,#367,.T.);
#102=ORIENTED_EDGE('',*,*,#353,.F.);
#103=ORIENTED_EDGE('',*,*,#350,.T.);
#104=ORIENTED_EDGE('',*,*,#347,.F.);
#105=ORIENTED_EDGE('',*,*,#344,.T.);
#106=ORIENTED_EDGE('',*,*,#341,.T.);
#107=ORIENTED_EDGE('',*,*,#338,.F.);
#108=ORIENTED_EDGE('',*,*,#335,.T.);
#109=ORIENTED_EDGE('',*,*,#332,.F.);
#110=ORIENTED_EDGE('',*,*,#318,.F.);
#111=ORIENTED_EDGE('',*,*,#356,.T.);
#112=ORIENTED_EDGE('',*,*,#325,.T.);
#113=ORIENTED_EDGE('',*,*,#322,.F.);
#114=ORIENTED_EDGE('',*,*,#354,.F.);
#115=ORIENTED_EDGE('',*,*,#367,.F.);
#116=ORIENTED_EDGE('',*,*,#331,.F.);
#117=ORIENTED_EDGE('',*,*,#362,.F.);
#118=ORIENTED_EDGE('',*,*,#361,.T.);
#119=ORIENTED_EDGE('',*,*,#366,.F.);
#120=ORIENTED_EDGE('',*,*,#360,.T.);
#121=ORIENTED_EDGE('',*,*,#365,.F.);
#122=ORIENTED_EDGE('',*,*,#359,.T.);
#123=ORIENTED_EDGE('',*,*,#364,.F.);
#124=ORIENTED_EDGE('',*,*,#358,.T.);
#125=ORIENTED_EDGE('',*,*,#363,.F.);
#126=ORIENTED_EDGE('',*,*,#368,.F.);
#127=ORIENTED_EDGE('',*,*,#369,.T.);
#128=ORIENTED_EDGE('',*,*,#370,.T.);
#129=ORIENTED_EDGE('',*,*,#371,.T.);
#130=ORIENTED_EDGE('',*,*,#372,.F.);
#131=ORIENTED_EDGE('',*,*,#373,.F.);
#132=ORIENTED_EDGE('',*,*,#374,.T.);
#133=ORIENTED_EDGE('',*,*,#375,.T.);
#134=ORIENTED_EDGE('',*,*,#376,.F.);
#135=ORIENTED_EDGE('',*,*,#377,.T.);
#136=ORIENTED_EDGE('',*,*,#378,.T.);
#137=ORIENTED_EDGE('',*,*,#379,.F.);
#138=ORIENTED_EDGE('',*,*,#380,.T.);
#139=ORIENTED_EDGE('',*,*,#381,.T.);
#140=ORIENTED_EDGE('',*,*,#368,.T.);
#141=ORIENTED_EDGE('',*,*,#382,.T.);
#142=ORIENTED_EDGE('',*,*,#383,.F.);
#143=ORIENTED_EDGE('',*,*,#384,.F.);
#144=ORIENTED_EDGE('',*,*,#376,.T.);
#145=ORIENTED_EDGE('',*,*,#385,.T.);
#146=ORIENTED_EDGE('',*,*,#386,.F.);
#147=ORIENTED_EDGE('',*,*,#387,.F.);
#148=ORIENTED_EDGE('',*,*,#388,.F.);
#149=ORIENTED_EDGE('',*,*,#374,.F.);
#150=ORIENTED_EDGE('',*,*,#389,.T.);
#151=ORIENTED_EDGE('',*,*,#390,.T.);
#152=ORIENTED_EDGE('',*,*,#391,.F.);
#153=ORIENTED_EDGE('',*,*,#370,.F.);
#154=ORIENTED_EDGE('',*,*,#392,.T.);
#155=ORIENTED_EDGE('',*,*,#393,.F.);
#156=ORIENTED_EDGE('',*,*,#394,.F.);
#157=ORIENTED_EDGE('',*,*,#395,.T.);
#158=ORIENTED_EDGE('',*,*,#396,.T.);
#159=ORIENTED_EDGE('',*,*,#397,.F.);
#160=ORIENTED_EDGE('',*,*,#398,.F.);
#161=ORIENTED_EDGE('',*,*,#399,.T.);
#162=ORIENTED_EDGE('',*,*,#400,.T.);
#163=ORIENTED_EDGE('',*,*,#401,.F.);
#164=ORIENTED_EDGE('',*,*,#402,.F.);
#165=ORIENTED_EDGE('',*,*,#403,.T.);
#166=ORIENTED_EDGE('',*,*,#404,.T.);
#167=ORIENTED_EDGE('',*,*,#405,.F.);
#168=ORIENTED_EDGE('',*,*,#406,.F.);
#169=ORIENTED_EDGE('',*,*,#407,.T.);
#170=ORIENTED_EDGE('',*,*,#408,.F.);
#171=ORIENTED_EDGE('',*,*,#409,.T.);
#172=ORIENTED_EDGE('',*,*,#410,.T.);
#173=ORIENTED_EDGE('',*,*,#411,.F.);
#174=ORIENTED_EDGE('',*,*,#390,.F.);
#175=ORIENTED_EDGE('',*,*,#412,.T.);
#176=ORIENTED_EDGE('',*,*,#413,.T.);
#177=ORIENTED_EDGE('',*,*,#414,.F.);
#178=ORIENTED_EDGE('',*,*,#415,.T.);
#179=ORIENTED_EDGE('',*,*,#416,.F.);
#180=ORIENTED_EDGE('',*,*,#377,.F.);
#181=ORIENTED_EDGE('',*,*,#384,.T.);
#182=ORIENTED_EDGE('',*,*,#417,.T.);
#183=ORIENTED_EDGE('',*,*,#418,.F.);
#184=ORIENTED_EDGE('',*,*,#378,.F.);
#185=ORIENTED_EDGE('',*,*,#416,.T.);
#186=ORIENTED_EDGE('',*,*,#419,.F.);
#187=ORIENTED_EDGE('',*,*,#382,.F.);
#188=ORIENTED_EDGE('',*,*,#379,.T.);
#189=ORIENTED_EDGE('',*,*,#418,.T.);
#190=ORIENTED_EDGE('',*,*,#383,.T.);
#191=ORIENTED_EDGE('',*,*,#419,.T.);
#192=ORIENTED_EDGE('',*,*,#417,.F.);
#193=ORIENTED_EDGE('',*,*,#415,.F.);
#194=ORIENTED_EDGE('',*,*,#412,.F.);
#195=ORIENTED_EDGE('',*,*,#389,.F.);
#196=ORIENTED_EDGE('',*,*,#373,.T.);
#197=ORIENTED_EDGE('',*,*,#420,.T.);
#198=ORIENTED_EDGE('',*,*,#421,.F.);
#199=ORIENTED_EDGE('',*,*,#413,.F.);
#200=ORIENTED_EDGE('',*,*,#420,.F.);
#201=ORIENTED_EDGE('',*,*,#372,.T.);
#202=ORIENTED_EDGE('',*,*,#422,.T.);
#203=ORIENTED_EDGE('',*,*,#410,.F.);
#204=ORIENTED_EDGE('',*,*,#423,.T.);
#205=ORIENTED_EDGE('',*,*,#424,.F.);
#206=ORIENTED_EDGE('',*,*,#411,.T.);
#207=ORIENTED_EDGE('',*,*,#422,.F.);
#208=ORIENTED_EDGE('',*,*,#371,.F.);
#209=ORIENTED_EDGE('',*,*,#391,.T.);
#210=ORIENTED_EDGE('',*,*,#425,.F.);
#211=ORIENTED_EDGE('',*,*,#406,.T.);
#212=ORIENTED_EDGE('',*,*,#426,.T.);
#213=ORIENTED_EDGE('',*,*,#427,.T.);
#214=ORIENTED_EDGE('',*,*,#407,.F.);
#215=ORIENTED_EDGE('',*,*,#425,.T.);
#216=ORIENTED_EDGE('',*,*,#428,.F.);
#217=ORIENTED_EDGE('',*,*,#429,.F.);
#218=ORIENTED_EDGE('',*,*,#426,.F.);
#219=ORIENTED_EDGE('',*,*,#405,.T.);
#220=ORIENTED_EDGE('',*,*,#430,.T.);
#221=ORIENTED_EDGE('',*,*,#431,.T.);
#222=ORIENTED_EDGE('',*,*,#431,.F.);
#223=ORIENTED_EDGE('',*,*,#432,.T.);
#224=ORIENTED_EDGE('',*,*,#428,.T.);
#225=ORIENTED_EDGE('',*,*,#427,.F.);
#226=ORIENTED_EDGE('',*,*,#404,.F.);
#227=ORIENTED_EDGE('',*,*,#429,.T.);
#228=ORIENTED_EDGE('',*,*,#432,.F.);
#229=ORIENTED_EDGE('',*,*,#430,.F.);
#230=ORIENTED_EDGE('',*,*,#433,.F.);
#231=ORIENTED_EDGE('',*,*,#402,.T.);
#232=ORIENTED_EDGE('',*,*,#434,.T.);
#233=ORIENTED_EDGE('',*,*,#435,.T.);
#234=ORIENTED_EDGE('',*,*,#403,.F.);
#235=ORIENTED_EDGE('',*,*,#433,.T.);
#236=ORIENTED_EDGE('',*,*,#436,.F.);
#237=ORIENTED_EDGE('',*,*,#437,.F.);
#238=ORIENTED_EDGE('',*,*,#434,.F.);
#239=ORIENTED_EDGE('',*,*,#401,.T.);
#240=ORIENTED_EDGE('',*,*,#438,.T.);
#241=ORIENTED_EDGE('',*,*,#439,.T.);
#242=ORIENTED_EDGE('',*,*,#439,.F.);
#243=ORIENTED_EDGE('',*,*,#440,.T.);
#244=ORIENTED_EDGE('',*,*,#436,.T.);
#245=ORIENTED_EDGE('',*,*,#435,.F.);
#246=ORIENTED_EDGE('',*,*,#400,.F.);
#247=ORIENTED_EDGE('',*,*,#437,.T.);
#248=ORIENTED_EDGE('',*,*,#440,.F.);
#249=ORIENTED_EDGE('',*,*,#438,.F.);
#250=ORIENTED_EDGE('',*,*,#441,.F.);
#251=ORIENTED_EDGE('',*,*,#398,.T.);
#252=ORIENTED_EDGE('',*,*,#442,.T.);
#253=ORIENTED_EDGE('',*,*,#443,.T.);
#254=ORIENTED_EDGE('',*,*,#399,.F.);
#255=ORIENTED_EDGE('',*,*,#441,.T.);
#256=ORIENTED_EDGE('',*,*,#444,.F.);
#257=ORIENTED_EDGE('',*,*,#445,.F.);
#258=ORIENTED_EDGE('',*,*,#442,.F.);
#259=ORIENTED_EDGE('',*,*,#397,.T.);
#260=ORIENTED_EDGE('',*,*,#446,.T.);
#261=ORIENTED_EDGE('',*,*,#447,.T.);
#262=ORIENTED_EDGE('',*,*,#447,.F.);
#263=ORIENTED_EDGE('',*,*,#448,.T.);
#264=ORIENTED_EDGE('',*,*,#444,.T.);
#265=ORIENTED_EDGE('',*,*,#443,.F.);
#266=ORIENTED_EDGE('',*,*,#396,.F.);
#267=ORIENTED_EDGE('',*,*,#445,.T.);
#268=ORIENTED_EDGE('',*,*,#448,.F.);
#269=ORIENTED_EDGE('',*,*,#446,.F.);
#270=ORIENTED_EDGE('',*,*,#449,.F.);
#271=ORIENTED_EDGE('',*,*,#424,.T.);
#272=ORIENTED_EDGE('',*,*,#450,.T.);
#273=ORIENTED_EDGE('',*,*,#451,.F.);
#274=ORIENTED_EDGE('',*,*,#452,.F.);
#275=ORIENTED_EDGE('',*,*,#414,.T.);
#276=ORIENTED_EDGE('',*,*,#421,.T.);
#277=ORIENTED_EDGE('',*,*,#449,.T.);
#278=ORIENTED_EDGE('',*,*,#409,.F.);
#279=ORIENTED_EDGE('',*,*,#453,.T.);
#280=ORIENTED_EDGE('',*,*,#450,.F.);
#281=ORIENTED_EDGE('',*,*,#423,.F.);
#282=ORIENTED_EDGE('',*,*,#453,.F.);
#283=ORIENTED_EDGE('',*,*,#408,.T.);
#284=ORIENTED_EDGE('',*,*,#452,.T.);
#285=ORIENTED_EDGE('',*,*,#451,.T.);
#286=ORIENTED_EDGE('',*,*,#454,.F.);
#287=ORIENTED_EDGE('',*,*,#394,.T.);
#288=ORIENTED_EDGE('',*,*,#455,.T.);
#289=ORIENTED_EDGE('',*,*,#456,.T.);
#290=ORIENTED_EDGE('',*,*,#395,.F.);
#291=ORIENTED_EDGE('',*,*,#454,.T.);
#292=ORIENTED_EDGE('',*,*,#457,.F.);
#293=ORIENTED_EDGE('',*,*,#458,.F.);
#294=ORIENTED_EDGE('',*,*,#455,.F.);
#295=ORIENTED_EDGE('',*,*,#393,.T.);
#296=ORIENTED_EDGE('',*,*,#459,.T.);
#297=ORIENTED_EDGE('',*,*,#460,.T.);
#298=ORIENTED_EDGE('',*,*,#460,.F.);
#299=ORIENTED_EDGE('',*,*,#461,.T.);
#300=ORIENTED_EDGE('',*,*,#457,.T.);
#301=ORIENTED_EDGE('',*,*,#456,.F.);
#302=ORIENTED_EDGE('',*,*,#392,.F.);
#303=ORIENTED_EDGE('',*,*,#458,.T.);
#304=ORIENTED_EDGE('',*,*,#461,.F.);
#305=ORIENTED_EDGE('',*,*,#459,.F.);
#306=ORIENTED_EDGE('',*,*,#387,.T.);
#307=ORIENTED_EDGE('',*,*,#462,.T.);
#308=ORIENTED_EDGE('',*,*,#380,.F.);
#309=ORIENTED_EDGE('',*,*,#463,.F.);
#310=ORIENTED_EDGE('',*,*,#381,.F.);
#311=ORIENTED_EDGE('',*,*,#462,.F.);
#312=ORIENTED_EDGE('',*,*,#386,.T.);
#313=ORIENTED_EDGE('',*,*,#369,.F.);
#314=ORIENTED_EDGE('',*,*,#388,.T.);
#315=ORIENTED_EDGE('',*,*,#463,.T.);
#316=ORIENTED_EDGE('',*,*,#385,.F.);
#317=ORIENTED_EDGE('',*,*,#375,.F.);
#318=EDGE_CURVE('',#464,#465,#564,.T.);
#319=EDGE_CURVE('',#466,#465,#565,.T.);
#320=EDGE_CURVE('',#467,#466,#566,.T.);
#321=EDGE_CURVE('',#467,#464,#567,.T.);
#322=EDGE_CURVE('',#465,#468,#568,.T.);
#323=EDGE_CURVE('',#469,#468,#569,.T.);
#324=EDGE_CURVE('',#466,#469,#570,.T.);
#325=EDGE_CURVE('',#470,#468,#571,.T.);
#326=EDGE_CURVE('',#471,#470,#572,.T.);
#327=EDGE_CURVE('',#471,#469,#573,.T.);
#328=EDGE_CURVE('',#472,#473,#574,.T.);
#329=EDGE_CURVE('',#474,#472,#575,.T.);
#330=EDGE_CURVE('',#474,#475,#576,.T.);
#331=EDGE_CURVE('',#475,#473,#577,.T.);
#332=EDGE_CURVE('',#472,#476,#578,.T.);
#333=EDGE_CURVE('',#477,#476,#579,.T.);
#334=EDGE_CURVE('',#474,#477,#580,.T.);
#335=EDGE_CURVE('',#478,#476,#581,.T.);
#336=EDGE_CURVE('',#479,#478,#582,.T.);
#337=EDGE_CURVE('',#479,#477,#583,.T.);
#338=EDGE_CURVE('',#478,#480,#584,.T.);
#339=EDGE_CURVE('',#481,#480,#585,.T.);
#340=EDGE_CURVE('',#479,#481,#586,.T.);
#341=EDGE_CURVE('',#482,#480,#587,.T.);
#342=EDGE_CURVE('',#483,#482,#588,.T.);
#343=EDGE_CURVE('',#483,#481,#589,.T.);
#344=EDGE_CURVE('',#484,#482,#590,.T.);
#345=EDGE_CURVE('',#485,#484,#591,.T.);
#346=EDGE_CURVE('',#485,#483,#592,.T.);
#347=EDGE_CURVE('',#484,#486,#593,.T.);
#348=EDGE_CURVE('',#487,#486,#594,.T.);
#349=EDGE_CURVE('',#485,#487,#595,.T.);
#350=EDGE_CURVE('',#488,#486,#596,.T.);
#351=EDGE_CURVE('',#489,#488,#597,.T.);
#352=EDGE_CURVE('',#489,#487,#598,.T.);
#353=EDGE_CURVE('',#488,#490,#599,.T.);
#354=EDGE_CURVE('',#490,#491,#600,.T.);
#355=EDGE_CURVE('',#489,#491,#601,.T.);
#356=EDGE_CURVE('',#464,#470,#602,.T.);
#357=EDGE_CURVE('',#467,#471,#603,.T.);
#358=EDGE_CURVE('',#492,#492,#18,.T.);
#359=EDGE_CURVE('',#493,#493,#19,.T.);
#360=EDGE_CURVE('',#494,#494,#20,.T.);
#361=EDGE_CURVE('',#495,#495,#21,.T.);
#362=EDGE_CURVE('',#491,#475,#604,.T.);
#363=EDGE_CURVE('',#496,#496,#22,.T.);
#364=EDGE_CURVE('',#497,#497,#23,.T.);
#365=EDGE_CURVE('',#498,#498,#24,.T.);
#366=EDGE_CURVE('',#499,#499,#25,.T.);
#367=EDGE_CURVE('',#473,#490,#605,.T.);
#368=EDGE_CURVE('',#500,#501,#606,.T.);
#369=EDGE_CURVE('',#500,#502,#607,.T.);
#370=EDGE_CURVE('',#502,#503,#608,.T.);
#371=EDGE_CURVE('',#503,#504,#609,.T.);
#372=EDGE_CURVE('',#505,#504,#610,.T.);
#373=EDGE_CURVE('',#506,#505,#611,.T.);
#374=EDGE_CURVE('',#506,#507,#612,.T.);
#375=EDGE_CURVE('',#507,#508,#613,.T.);
#376=EDGE_CURVE('',#509,#508,#614,.T.);
#377=EDGE_CURVE('',#509,#510,#615,.T.);
#378=EDGE_CURVE('',#510,#511,#616,.T.);
#379=EDGE_CURVE('',#501,#511,#617,.T.);
#380=EDGE_CURVE('',#512,#513,#618,.T.);
#381=EDGE_CURVE('',#513,#500,#619,.T.);
#382=EDGE_CURVE('',#501,#514,#620,.T.);
#383=EDGE_CURVE('',#515,#514,#621,.T.);
#384=EDGE_CURVE('',#509,#515,#622,.T.);
#385=EDGE_CURVE('',#508,#512,#623,.T.);
#386=EDGE_CURVE('',#516,#502,#624,.T.);
#387=EDGE_CURVE('',#517,#516,#625,.T.);
#388=EDGE_CURVE('',#507,#517,#626,.T.);
#389=EDGE_CURVE('',#506,#518,#627,.T.);
#390=EDGE_CURVE('',#518,#519,#628,.T.);
#391=EDGE_CURVE('',#503,#519,#629,.T.);
#392=EDGE_CURVE('',#520,#521,#630,.T.);
#393=EDGE_CURVE('',#522,#521,#631,.T.);
#394=EDGE_CURVE('',#523,#522,#632,.T.);
#395=EDGE_CURVE('',#523,#520,#633,.T.);
#396=EDGE_CURVE('',#524,#525,#634,.T.);
#397=EDGE_CURVE('',#526,#525,#635,.T.);
#398=EDGE_CURVE('',#527,#526,#636,.T.);
#399=EDGE_CURVE('',#527,#524,#637,.T.);
#400=EDGE_CURVE('',#528,#529,#638,.T.);
#401=EDGE_CURVE('',#530,#529,#639,.T.);
#402=EDGE_CURVE('',#531,#530,#640,.T.);
#403=EDGE_CURVE('',#531,#528,#641,.T.);
#404=EDGE_CURVE('',#532,#533,#642,.T.);
#405=EDGE_CURVE('',#534,#533,#643,.T.);
#406=EDGE_CURVE('',#535,#534,#644,.T.);
#407=EDGE_CURVE('',#535,#532,#645,.T.);
#408=EDGE_CURVE('',#536,#537,#646,.T.);
#409=EDGE_CURVE('',#536,#538,#647,.T.);
#410=EDGE_CURVE('',#538,#539,#648,.T.);
#411=EDGE_CURVE('',#519,#539,#649,.T.);
#412=EDGE_CURVE('',#518,#540,#650,.T.);
#413=EDGE_CURVE('',#540,#541,#651,.T.);
#414=EDGE_CURVE('',#537,#541,#652,.T.);
#415=EDGE_CURVE('',#515,#542,#653,.T.);
#416=EDGE_CURVE('',#510,#542,#654,.T.);
#417=EDGE_CURVE('',#542,#543,#655,.T.);
#418=EDGE_CURVE('',#511,#543,#656,.T.);
#419=EDGE_CURVE('',#514,#543,#657,.T.);
#420=EDGE_CURVE('',#505,#540,#658,.T.);
#421=EDGE_CURVE('',#541,#544,#659,.T.);
#422=EDGE_CURVE('',#504,#539,#660,.T.);
#423=EDGE_CURVE('',#538,#545,#661,.T.);
#424=EDGE_CURVE('',#544,#545,#662,.T.);
#425=EDGE_CURVE('',#535,#546,#663,.T.);
#426=EDGE_CURVE('',#534,#547,#664,.T.);
#427=EDGE_CURVE('',#547,#546,#665,.T.);
#428=EDGE_CURVE('',#548,#546,#666,.T.);
#429=EDGE_CURVE('',#532,#548,#667,.T.);
#430=EDGE_CURVE('',#533,#549,#668,.T.);
#431=EDGE_CURVE('',#549,#547,#669,.T.);
#432=EDGE_CURVE('',#549,#548,#670,.T.);
#433=EDGE_CURVE('',#531,#550,#671,.T.);
#434=EDGE_CURVE('',#530,#551,#672,.T.);
#435=EDGE_CURVE('',#551,#550,#673,.T.);
#436=EDGE_CURVE('',#552,#550,#674,.T.);
#437=EDGE_CURVE('',#528,#552,#675,.T.);
#438=EDGE_CURVE('',#529,#553,#676,.T.);
#439=EDGE_CURVE('',#553,#551,#677,.T.);
#440=EDGE_CURVE('',#553,#552,#678,.T.);
#441=EDGE_CURVE('',#527,#554,#679,.T.);
#442=EDGE_CURVE('',#526,#555,#680,.T.);
#443=EDGE_CURVE('',#555,#554,#681,.T.);
#444=EDGE_CURVE('',#556,#554,#682,.T.);
#445=EDGE_CURVE('',#524,#556,#683,.T.);
#446=EDGE_CURVE('',#525,#557,#684,.T.);
#447=EDGE_CURVE('',#557,#555,#685,.T.);
#448=EDGE_CURVE('',#557,#556,#686,.T.);
#449=EDGE_CURVE('',#544,#558,#687,.T.);
#450=EDGE_CURVE('',#545,#559,#688,.T.);
#451=EDGE_CURVE('',#558,#559,#689,.T.);
#452=EDGE_CURVE('',#537,#558,#690,.T.);
#453=EDGE_CURVE('',#536,#559,#691,.T.);
#454=EDGE_CURVE('',#523,#560,#692,.T.);
#455=EDGE_CURVE('',#522,#561,#693,.T.);
#456=EDGE_CURVE('',#561,#560,#694,.T.);
#457=EDGE_CURVE('',#562,#560,#695,.T.);
#458=EDGE_CURVE('',#520,#562,#696,.T.);
#459=EDGE_CURVE('',#521,#563,#697,.T.);
#460=EDGE_CURVE('',#563,#561,#698,.T.);
#461=EDGE_CURVE('',#563,#562,#699,.T.);
#462=EDGE_CURVE('',#516,#513,#700,.T.);
#463=EDGE_CURVE('',#517,#512,#701,.T.);
#464=VERTEX_POINT('',#1473);
#465=VERTEX_POINT('',#1474);
#466=VERTEX_POINT('',#1476);
#467=VERTEX_POINT('',#1478);
#468=VERTEX_POINT('',#1482);
#469=VERTEX_POINT('',#1484);
#470=VERTEX_POINT('',#1488);
#471=VERTEX_POINT('',#1490);
#472=VERTEX_POINT('',#1494);
#473=VERTEX_POINT('',#1495);
#474=VERTEX_POINT('',#1497);
#475=VERTEX_POINT('',#1499);
#476=VERTEX_POINT('',#1503);
#477=VERTEX_POINT('',#1505);
#478=VERTEX_POINT('',#1509);
#479=VERTEX_POINT('',#1511);
#480=VERTEX_POINT('',#1515);
#481=VERTEX_POINT('',#1517);
#482=VERTEX_POINT('',#1521);
#483=VERTEX_POINT('',#1523);
#484=VERTEX_POINT('',#1527);
#485=VERTEX_POINT('',#1529);
#486=VERTEX_POINT('',#1533);
#487=VERTEX_POINT('',#1535);
#488=VERTEX_POINT('',#1539);
#489=VERTEX_POINT('',#1541);
#490=VERTEX_POINT('',#1545);
#491=VERTEX_POINT('',#1547);
#492=VERTEX_POINT('',#1554);
#493=VERTEX_POINT('',#1556);
#494=VERTEX_POINT('',#1558);
#495=VERTEX_POINT('',#1560);
#496=VERTEX_POINT('',#1564);
#497=VERTEX_POINT('',#1566);
#498=VERTEX_POINT('',#1568);
#499=VERTEX_POINT('',#1570);
#500=VERTEX_POINT('',#1580);
#501=VERTEX_POINT('',#1581);
#502=VERTEX_POINT('',#1583);
#503=VERTEX_POINT('',#1585);
#504=VERTEX_POINT('',#1587);
#505=VERTEX_POINT('',#1589);
#506=VERTEX_POINT('',#1591);
#507=VERTEX_POINT('',#1593);
#508=VERTEX_POINT('',#1595);
#509=VERTEX_POINT('',#1597);
#510=VERTEX_POINT('',#1599);
#511=VERTEX_POINT('',#1601);
#512=VERTEX_POINT('',#1605);
#513=VERTEX_POINT('',#1606);
#514=VERTEX_POINT('',#1609);
#515=VERTEX_POINT('',#1611);
#516=VERTEX_POINT('',#1616);
#517=VERTEX_POINT('',#1618);
#518=VERTEX_POINT('',#1621);
#519=VERTEX_POINT('',#1623);
#520=VERTEX_POINT('',#1627);
#521=VERTEX_POINT('',#1628);
#522=VERTEX_POINT('',#1630);
#523=VERTEX_POINT('',#1632);
#524=VERTEX_POINT('',#1635);
#525=VERTEX_POINT('',#1636);
#526=VERTEX_POINT('',#1638);
#527=VERTEX_POINT('',#1640);
#528=VERTEX_POINT('',#1643);
#529=VERTEX_POINT('',#1644);
#530=VERTEX_POINT('',#1646);
#531=VERTEX_POINT('',#1648);
#532=VERTEX_POINT('',#1651);
#533=VERTEX_POINT('',#1652);
#534=VERTEX_POINT('',#1654);
#535=VERTEX_POINT('',#1656);
#536=VERTEX_POINT('',#1659);
#537=VERTEX_POINT('',#1660);
#538=VERTEX_POINT('',#1662);
#539=VERTEX_POINT('',#1664);
#540=VERTEX_POINT('',#1667);
#541=VERTEX_POINT('',#1669);
#542=VERTEX_POINT('',#1673);
#543=VERTEX_POINT('',#1677);
#544=VERTEX_POINT('',#1686);
#545=VERTEX_POINT('',#1689);
#546=VERTEX_POINT('',#1694);
#547=VERTEX_POINT('',#1696);
#548=VERTEX_POINT('',#1700);
#549=VERTEX_POINT('',#1704);
#550=VERTEX_POINT('',#1711);
#551=VERTEX_POINT('',#1713);
#552=VERTEX_POINT('',#1717);
#553=VERTEX_POINT('',#1721);
#554=VERTEX_POINT('',#1728);
#555=VERTEX_POINT('',#1730);
#556=VERTEX_POINT('',#1734);
#557=VERTEX_POINT('',#1738);
#558=VERTEX_POINT('',#1745);
#559=VERTEX_POINT('',#1747);
#560=VERTEX_POINT('',#1756);
#561=VERTEX_POINT('',#1758);
#562=VERTEX_POINT('',#1762);
#563=VERTEX_POINT('',#1766);
#564=LINE('',#1472,#702);
#565=LINE('',#1475,#703);
#566=LINE('',#1477,#704);
#567=LINE('',#1479,#705);
#568=LINE('',#1481,#706);
#569=LINE('',#1483,#707);
#570=LINE('',#1485,#708);
#571=LINE('',#1487,#709);
#572=LINE('',#1489,#710);
#573=LINE('',#1491,#711);
#574=LINE('',#1493,#712);
#575=LINE('',#1496,#713);
#576=LINE('',#1498,#714);
#577=LINE('',#1500,#715);
#578=LINE('',#1502,#716);
#579=LINE('',#1504,#717);
#580=LINE('',#1506,#718);
#581=LINE('',#1508,#719);
#582=LINE('',#1510,#720);
#583=LINE('',#1512,#721);
#584=LINE('',#1514,#722);
#585=LINE('',#1516,#723);
#586=LINE('',#1518,#724);
#587=LINE('',#1520,#725);
#588=LINE('',#1522,#726);
#589=LINE('',#1524,#727);
#590=LINE('',#1526,#728);
#591=LINE('',#1528,#729);
#592=LINE('',#1530,#730);
#593=LINE('',#1532,#731);
#594=LINE('',#1534,#732);
#595=LINE('',#1536,#733);
#596=LINE('',#1538,#734);
#597=LINE('',#1540,#735);
#598=LINE('',#1542,#736);
#599=LINE('',#1544,#737);
#600=LINE('',#1546,#738);
#601=LINE('',#1548,#739);
#602=LINE('',#1550,#740);
#603=LINE('',#1551,#741);
#604=LINE('',#1561,#742);
#605=LINE('',#1571,#743);
#606=LINE('',#1579,#744);
#607=LINE('',#1582,#745);
#608=LINE('',#1584,#746);
#609=LINE('',#1586,#747);
#610=LINE('',#1588,#748);
#611=LINE('',#1590,#749);
#612=LINE('',#1592,#750);
#613=LINE('',#1594,#751);
#614=LINE('',#1596,#752);
#615=LINE('',#1598,#753);
#616=LINE('',#1600,#754);
#617=LINE('',#1602,#755);
#618=LINE('',#1604,#756);
#619=LINE('',#1607,#757);
#620=LINE('',#1608,#758);
#621=LINE('',#1610,#759);
#622=LINE('',#1612,#760);
#623=LINE('',#1613,#761);
#624=LINE('',#1615,#762);
#625=LINE('',#1617,#763);
#626=LINE('',#1619,#764);
#627=LINE('',#1620,#765);
#628=LINE('',#1622,#766);
#629=LINE('',#1624,#767);
#630=LINE('',#1626,#768);
#631=LINE('',#1629,#769);
#632=LINE('',#1631,#770);
#633=LINE('',#1633,#771);
#634=LINE('',#1634,#772);
#635=LINE('',#1637,#773);
#636=LINE('',#1639,#774);
#637=LINE('',#1641,#775);
#638=LINE('',#1642,#776);
#639=LINE('',#1645,#777);
#640=LINE('',#1647,#778);
#641=LINE('',#1649,#779);
#642=LINE('',#1650,#780);
#643=LINE('',#1653,#781);
#644=LINE('',#1655,#782);
#645=LINE('',#1657,#783);
#646=LINE('',#1658,#784);
#647=LINE('',#1661,#785);
#648=LINE('',#1663,#786);
#649=LINE('',#1665,#787);
#650=LINE('',#1666,#788);
#651=LINE('',#1668,#789);
#652=LINE('',#1670,#790);
#653=LINE('',#1672,#791);
#654=LINE('',#1674,#792);
#655=LINE('',#1676,#793);
#656=LINE('',#1678,#794);
#657=LINE('',#1680,#795);
#658=LINE('',#1683,#796);
#659=LINE('',#1685,#797);
#660=LINE('',#1687,#798);
#661=LINE('',#1688,#799);
#662=LINE('',#1690,#800);
#663=LINE('',#1693,#801);
#664=LINE('',#1695,#802);
#665=LINE('',#1697,#803);
#666=LINE('',#1699,#804);
#667=LINE('',#1701,#805);
#668=LINE('',#1703,#806);
#669=LINE('',#1705,#807);
#670=LINE('',#1707,#808);
#671=LINE('',#1710,#809);
#672=LINE('',#1712,#810);
#673=LINE('',#1714,#811);
#674=LINE('',#1716,#812);
#675=LINE('',#1718,#813);
#676=LINE('',#1720,#814);
#677=LINE('',#1722,#815);
#678=LINE('',#1724,#816);
#679=LINE('',#1727,#817);
#680=LINE('',#1729,#818);
#681=LINE('',#1731,#819);
#682=LINE('',#1733,#820);
#683=LINE('',#1735,#821);
#684=LINE('',#1737,#822);
#685=LINE('',#1739,#823);
#686=LINE('',#1741,#824);
#687=LINE('',#1744,#825);
#688=LINE('',#1746,#826);
#689=LINE('',#1748,#827);
#690=LINE('',#1750,#828);
#691=LINE('',#1752,#829);
#692=LINE('',#1755,#830);
#693=LINE('',#1757,#831);
#694=LINE('',#1759,#832);
#695=LINE('',#1761,#833);
#696=LINE('',#1763,#834);
#697=LINE('',#1765,#835);
#698=LINE('',#1767,#836);
#699=LINE('',#1769,#837);
#700=LINE('',#1772,#838);
#701=LINE('',#1773,#839);
#702=VECTOR('',#1200,1.);
#703=VECTOR('',#1201,1.);
#704=VECTOR('',#1202,1.);
#705=VECTOR('',#1203,1.);
#706=VECTOR('',#1206,1.);
#707=VECTOR('',#1207,1.);
#708=VECTOR('',#1208,1.);
#709=VECTOR('',#1211,1.);
#710=VECTOR('',#1212,1.);
#711=VECTOR('',#1213,1.);
#712=VECTOR('',#1216,1.);
#713=VECTOR('',#1217,1.);
#714=VECTOR('',#1218,1.);
#715=VECTOR('',#1219,1.);
#716=VECTOR('',#1222,1.);
#717=VECTOR('',#1223,1.);
#718=VECTOR('',#1224,1.);
#719=VECTOR('',#1227,1.);
#720=VECTOR('',#1228,1.);
#721=VECTOR('',#1229,1.);
#722=VECTOR('',#1232,1.);
#723=VECTOR('',#1233,1.);
#724=VECTOR('',#1234,1.);
#725=VECTOR('',#1237,1.);
#726=VECTOR('',#1238,1.);
#727=VECTOR('',#1239,1.);
#728=VECTOR('',#1242,1.);
#729=VECTOR('',#1243,1.);
#730=VECTOR('',#1244,1.);
#731=VECTOR('',#1247,1.);
#732=VECTOR('',#1248,1.);
#733=VECTOR('',#1249,1.);
#734=VECTOR('',#1252,1.);
#735=VECTOR('',#1253,1.);
#736=VECTOR('',#1254,1.);
#737=VECTOR('',#1257,1.);
#738=VECTOR('',#1258,1.);
#739=VECTOR('',#1259,1.);
#740=VECTOR('',#1262,1.);
#741=VECTOR('',#1263,1.);
#742=VECTOR('',#1274,1.);
#743=VECTOR('',#1285,1.);
#744=VECTOR('',#1300,1.);
#745=VECTOR('',#1301,1.);
#746=VECTOR('',#1302,1.);
#747=VECTOR('',#1303,1.);
#748=VECTOR('',#1304,1.);
#749=VECTOR('',#1305,1.);
#750=VECTOR('',#1306,1.);
#751=VECTOR('',#1307,1.);
#752=VECTOR('',#1308,1.);
#753=VECTOR('',#1309,1.);
#754=VECTOR('',#1310,1.);
#755=VECTOR('',#1311,1.);
#756=VECTOR('',#1314,1.);
#757=VECTOR('',#1315,1.);
#758=VECTOR('',#1316,1.);
#759=VECTOR('',#1317,1.);
#760=VECTOR('',#1318,1.);
#761=VECTOR('',#1319,1.);
#762=VECTOR('',#1322,1.);
#763=VECTOR('',#1323,1.);
#764=VECTOR('',#1324,1.);
#765=VECTOR('',#1325,1.);
#766=VECTOR('',#1326,1.);
#767=VECTOR('',#1327,1.);
#768=VECTOR('',#1330,1.);
#769=VECTOR('',#1331,1.);
#770=VECTOR('',#1332,1.);
#771=VECTOR('',#1333,1.);
#772=VECTOR('',#1334,1.);
#773=VECTOR('',#1335,1.);
#774=VECTOR('',#1336,1.);
#775=VECTOR('',#1337,1.);
#776=VECTOR('',#1338,1.);
#777=VECTOR('',#1339,1.);
#778=VECTOR('',#1340,1.);
#779=VECTOR('',#1341,1.);
#780=VECTOR('',#1342,1.);
#781=VECTOR('',#1343,1.);
#782=VECTOR('',#1344,1.);
#783=VECTOR('',#1345,1.);
#784=VECTOR('',#1346,1.);
#785=VECTOR('',#1347,1.);
#786=VECTOR('',#1348,1.);
#787=VECTOR('',#1349,1.);
#788=VECTOR('',#1350,1.);
#789=VECTOR('',#1351,1.);
#790=VECTOR('',#1352,1.);
#791=VECTOR('',#1355,1.);
#792=VECTOR('',#1356,1.);
#793=VECTOR('',#1359,1.);
#794=VECTOR('',#1360,1.);
#795=VECTOR('',#1363,1.);
#796=VECTOR('',#1368,1.);
#797=VECTOR('',#1371,1.);
#798=VECTOR('',#1372,1.);
#799=VECTOR('',#1373,1.);
#800=VECTOR('',#1374,1.);
#801=VECTOR('',#1379,1.);
#802=VECTOR('',#1380,1.);
#803=VECTOR('',#1381,1.);
#804=VECTOR('',#1384,1.);
#805=VECTOR('',#1385,1.);
#806=VECTOR('',#1388,1.);
#807=VECTOR('',#1389,1.);
#808=VECTOR('',#1392,1.);
#809=VECTOR('',#1397,1.);
#810=VECTOR('',#1398,1.);
#811=VECTOR('',#1399,1.);
#812=VECTOR('',#1402,1.);
#813=VECTOR('',#1403,1.);
#814=VECTOR('',#1406,1.);
#815=VECTOR('',#1407,1.);
#816=VECTOR('',#1410,1.);
#817=VECTOR('',#1415,1.);
#818=VECTOR('',#1416,1.);
#819=VECTOR('',#1417,1.);
#820=VECTOR('',#1420,1.);
#821=VECTOR('',#1421,1.);
#822=VECTOR('',#1424,1.);
#823=VECTOR('',#1425,1.);
#824=VECTOR('',#1428,1.);
#825=VECTOR('',#1433,1.);
#826=VECTOR('',#1434,1.);
#827=VECTOR('',#1435,1.);
#828=VECTOR('',#1438,1.);
#829=VECTOR('',#1441,1.);
#830=VECTOR('',#1446,1.);
#831=VECTOR('',#1447,1.);
#832=VECTOR('',#1448,1.);
#833=VECTOR('',#1451,1.);
#834=VECTOR('',#1452,1.);
#835=VECTOR('',#1455,1.);
#836=VECTOR('',#1456,1.);
#837=VECTOR('',#1459,1.);
#838=VECTOR('',#1464,1.);
#839=VECTOR('',#1465,1.);
#840=EDGE_LOOP('',(#26,#27,#28,#29));
#841=EDGE_LOOP('',(#30,#31,#32,#33));
#842=EDGE_LOOP('',(#34,#35,#36,#37));
#843=EDGE_LOOP('',(#38,#39,#40,#41));
#844=EDGE_LOOP('',(#42,#43,#44,#45));
#845=EDGE_LOOP('',(#46,#47,#48,#49));
#846=EDGE_LOOP('',(#50,#51,#52,#53));
#847=EDGE_LOOP('',(#54,#55,#56,#57));
#848=EDGE_LOOP('',(#58,#59,#60,#61));
#849=EDGE_LOOP('',(#62,#63,#64,#65));
#850=EDGE_LOOP('',(#66,#67,#68,#69));
#851=EDGE_LOOP('',(#70,#71,#72,#73));
#852=EDGE_LOOP('',(#74,#75,#76,#77));
#853=EDGE_LOOP('',(#78));
#854=EDGE_LOOP('',(#79));
#855=EDGE_LOOP('',(#80));
#856=EDGE_LOOP('',(#81));
#857=EDGE_LOOP('',(#82,#83,#84,#85,#86,#87,#88,#89,#90,#91));
#858=EDGE_LOOP('',(#92,#93,#94,#95));
#859=EDGE_LOOP('',(#96));
#860=EDGE_LOOP('',(#97));
#861=EDGE_LOOP('',(#98));
#862=EDGE_LOOP('',(#99));
#863=EDGE_LOOP('',(#100,#101,#102,#103,#104,#105,#106,#107,#108,#109));
#864=EDGE_LOOP('',(#110,#111,#112,#113));
#865=EDGE_LOOP('',(#114,#115,#116,#117));
#866=EDGE_LOOP('',(#118));
#867=EDGE_LOOP('',(#119));
#868=EDGE_LOOP('',(#120));
#869=EDGE_LOOP('',(#121));
#870=EDGE_LOOP('',(#122));
#871=EDGE_LOOP('',(#123));
#872=EDGE_LOOP('',(#124));
#873=EDGE_LOOP('',(#125));
#874=EDGE_LOOP('',(#126,#127,#128,#129,#130,#131,#132,#133,#134,#135,#136,
#137));
#875=EDGE_LOOP('',(#138,#139,#140,#141,#142,#143,#144,#145));
#876=EDGE_LOOP('',(#146,#147,#148,#149,#150,#151,#152,#153));
#877=EDGE_LOOP('',(#154,#155,#156,#157));
#878=EDGE_LOOP('',(#158,#159,#160,#161));
#879=EDGE_LOOP('',(#162,#163,#164,#165));
#880=EDGE_LOOP('',(#166,#167,#168,#169));
#881=EDGE_LOOP('',(#170,#171,#172,#173,#174,#175,#176,#177));
#882=EDGE_LOOP('',(#178,#179,#180,#181));
#883=EDGE_LOOP('',(#182,#183,#184,#185));
#884=EDGE_LOOP('',(#186,#187,#188,#189));
#885=EDGE_LOOP('',(#190,#191,#192,#193));
#886=EDGE_LOOP('',(#194,#195,#196,#197));
#887=EDGE_LOOP('',(#198,#199,#200,#201,#202,#203,#204,#205));
#888=EDGE_LOOP('',(#206,#207,#208,#209));
#889=EDGE_LOOP('',(#210,#211,#212,#213));
#890=EDGE_LOOP('',(#214,#215,#216,#217));
#891=EDGE_LOOP('',(#218,#219,#220,#221));
#892=EDGE_LOOP('',(#222,#223,#224,#225));
#893=EDGE_LOOP('',(#226,#227,#228,#229));
#894=EDGE_LOOP('',(#230,#231,#232,#233));
#895=EDGE_LOOP('',(#234,#235,#236,#237));
#896=EDGE_LOOP('',(#238,#239,#240,#241));
#897=EDGE_LOOP('',(#242,#243,#244,#245));
#898=EDGE_LOOP('',(#246,#247,#248,#249));
#899=EDGE_LOOP('',(#250,#251,#252,#253));
#900=EDGE_LOOP('',(#254,#255,#256,#257));
#901=EDGE_LOOP('',(#258,#259,#260,#261));
#902=EDGE_LOOP('',(#262,#263,#264,#265));
#903=EDGE_LOOP('',(#266,#267,#268,#269));
#904=EDGE_LOOP('',(#270,#271,#272,#273));
#905=EDGE_LOOP('',(#274,#275,#276,#277));
#906=EDGE_LOOP('',(#278,#279,#280,#281));
#907=EDGE_LOOP('',(#282,#283,#284,#285));
#908=EDGE_LOOP('',(#286,#287,#288,#289));
#909=EDGE_LOOP('',(#290,#291,#292,#293));
#910=EDGE_LOOP('',(#294,#295,#296,#297));
#911=EDGE_LOOP('',(#298,#299,#300,#301));
#912=EDGE_LOOP('',(#302,#303,#304,#305));
#913=EDGE_LOOP('',(#306,#307,#308,#309));
#914=EDGE_LOOP('',(#310,#311,#312,#313));
#915=EDGE_LOOP('',(#314,#315,#316,#317));
#916=FACE_BOUND('',#840,.T.);
#917=FACE_BOUND('',#841,.T.);
#918=FACE_BOUND('',#842,.T.);
#919=FACE_BOUND('',#843,.T.);
#920=FACE_BOUND('',#844,.T.);
#921=FACE_BOUND('',#845,.T.);
#922=FACE_BOUND('',#846,.T.);
#923=FACE_BOUND('',#847,.T.);
#924=FACE_BOUND('',#848,.T.);
#925=FACE_BOUND('',#849,.T.);
#926=FACE_BOUND('',#850,.T.);
#927=FACE_BOUND('',#851,.T.);
#928=FACE_BOUND('',#852,.T.);
#929=FACE_BOUND('',#853,.T.);
#930=FACE_BOUND('',#854,.T.);
#931=FACE_BOUND('',#855,.T.);
#932=FACE_BOUND('',#856,.T.);
#933=FACE_BOUND('',#857,.T.);
#934=FACE_BOUND('',#858,.T.);
#935=FACE_BOUND('',#859,.T.);
#936=FACE_BOUND('',#860,.T.);
#937=FACE_BOUND('',#861,.T.);
#938=FACE_BOUND('',#862,.T.);
#939=FACE_BOUND('',#863,.T.);
#940=FACE_BOUND('',#864,.T.);
#941=FACE_BOUND('',#865,.T.);
#942=FACE_BOUND('',#866,.T.);
#943=FACE_BOUND('',#867,.T.);
#944=FACE_BOUND('',#868,.T.);
#945=FACE_BOUND('',#869,.T.);
#946=FACE_BOUND('',#870,.T.);
#947=FACE_BOUND('',#871,.T.);
#948=FACE_BOUND('',#872,.T.);
#949=FACE_BOUND('',#873,.T.);
#950=FACE_BOUND('',#874,.T.);
#951=FACE_BOUND('',#875,.T.);
#952=FACE_BOUND('',#876,.T.);
#953=FACE_BOUND('',#877,.T.);
#954=FACE_BOUND('',#878,.T.);
#955=FACE_BOUND('',#879,.T.);
#956=FACE_BOUND('',#880,.T.);
#957=FACE_BOUND('',#881,.T.);
#958=FACE_BOUND('',#882,.T.);
#959=FACE_BOUND('',#883,.T.);
#960=FACE_BOUND('',#884,.T.);
#961=FACE_BOUND('',#885,.T.);
#962=FACE_BOUND('',#886,.T.);
#963=FACE_BOUND('',#887,.T.);
#964=FACE_BOUND('',#888,.T.);
#965=FACE_BOUND('',#889,.T.);
#966=FACE_BOUND('',#890,.T.);
#967=FACE_BOUND('',#891,.T.);
#968=FACE_BOUND('',#892,.T.);
#969=FACE_BOUND('',#893,.T.);
#970=FACE_BOUND('',#894,.T.);
#971=FACE_BOUND('',#895,.T.);
#972=FACE_BOUND('',#896,.T.);
#973=FACE_BOUND('',#897,.T.);
#974=FACE_BOUND('',#898,.T.);
#975=FACE_BOUND('',#899,.T.);
#976=FACE_BOUND('',#900,.T.);
#977=FACE_BOUND('',#901,.T.);
#978=FACE_BOUND('',#902,.T.);
#979=FACE_BOUND('',#903,.T.);
#980=FACE_BOUND('',#904,.T.);
#981=FACE_BOUND('',#905,.T.);
#982=FACE_BOUND('',#906,.T.);
#983=FACE_BOUND('',#907,.T.);
#984=FACE_BOUND('',#908,.T.);
#985=FACE_BOUND('',#909,.T.);
#986=FACE_BOUND('',#910,.T.);
#987=FACE_BOUND('',#911,.T.);
#988=FACE_BOUND('',#912,.T.);
#989=FACE_BOUND('',#913,.T.);
#990=FACE_BOUND('',#914,.T.);
#991=FACE_BOUND('',#915,.T.);
#992=PLANE('',#1129);
#993=PLANE('',#1130);
#994=PLANE('',#1131);
#995=PLANE('',#1132);
#996=PLANE('',#1133);
#997=PLANE('',#1134);
#998=PLANE('',#1135);
#999=PLANE('',#1136);
#1000=PLANE('',#1137);
#1001=PLANE('',#1138);
#1002=PLANE('',#1139);
#1003=PLANE('',#1140);
#1004=PLANE('',#1141);
#1005=PLANE('',#1142);
#1006=PLANE('',#1147);
#1007=PLANE('',#1152);
#1008=PLANE('',#1158);
#1009=PLANE('',#1159);
#1010=PLANE('',#1160);
#1011=PLANE('',#1161);
#1012=PLANE('',#1162);
#1013=PLANE('',#1163);
#1014=PLANE('',#1164);
#1015=PLANE('',#1165);
#1016=PLANE('',#1166);
#1017=PLANE('',#1167);
#1018=PLANE('',#1168);
#1019=PLANE('',#1169);
#1020=PLANE('',#1170);
#1021=PLANE('',#1171);
#1022=PLANE('',#1172);
#1023=PLANE('',#1173);
#1024=PLANE('',#1174);
#1025=PLANE('',#1175);
#1026=PLANE('',#1176);
#1027=PLANE('',#1177);
#1028=PLANE('',#1178);
#1029=PLANE('',#1179);
#1030=PLANE('',#1180);
#1031=PLANE('',#1181);
#1032=PLANE('',#1182);
#1033=PLANE('',#1183);
#1034=PLANE('',#1184);
#1035=PLANE('',#1185);
#1036=PLANE('',#1186);
#1037=PLANE('',#1187);
#1038=PLANE('',#1188);
#1039=PLANE('',#1189);
#1040=PLANE('',#1190);
#1041=PLANE('',#1191);
#1042=PLANE('',#1192);
#1043=PLANE('',#1193);
#1044=PLANE('',#1194);
#1045=PLANE('',#1195);
#1046=ADVANCED_FACE('',(#916),#992,.F.);
#1047=ADVANCED_FACE('',(#917),#993,.F.);
#1048=ADVANCED_FACE('',(#918),#994,.T.);
#1049=ADVANCED_FACE('',(#919),#995,.T.);
#1050=ADVANCED_FACE('',(#920),#996,.F.);
#1051=ADVANCED_FACE('',(#921),#997,.T.);
#1052=ADVANCED_FACE('',(#922),#998,.F.);
#1053=ADVANCED_FACE('',(#923),#999,.T.);
#1054=ADVANCED_FACE('',(#924),#1000,.T.);
#1055=ADVANCED_FACE('',(#925),#1001,.F.);
#1056=ADVANCED_FACE('',(#926),#1002,.T.);
#1057=ADVANCED_FACE('',(#927),#1003,.F.);
#1058=ADVANCED_FACE('',(#928),#1004,.T.);
#1059=ADVANCED_FACE('',(#929,#930,#931,#932,#933,#934),#1005,.T.);
#1060=ADVANCED_FACE('',(#935,#936,#937,#938,#939,#940),#1006,.F.);
#1061=ADVANCED_FACE('',(#941),#1007,.T.);
#1062=ADVANCED_FACE('',(#942,#943),#14,.F.);
#1063=ADVANCED_FACE('',(#944,#945),#15,.F.);
#1064=ADVANCED_FACE('',(#946,#947),#16,.F.);
#1065=ADVANCED_FACE('',(#948,#949),#17,.F.);
#1066=ADVANCED_FACE('',(#950),#1008,.T.);
#1067=ADVANCED_FACE('',(#951),#1009,.T.);
#1068=ADVANCED_FACE('',(#952),#1010,.F.);
#1069=ADVANCED_FACE('',(#953,#954,#955,#956,#957),#1011,.T.);
#1070=ADVANCED_FACE('',(#958),#1012,.F.);
#1071=ADVANCED_FACE('',(#959),#1013,.F.);
#1072=ADVANCED_FACE('',(#960),#1014,.T.);
#1073=ADVANCED_FACE('',(#961),#1015,.F.);
#1074=ADVANCED_FACE('',(#962),#1016,.T.);
#1075=ADVANCED_FACE('',(#963),#1017,.T.);
#1076=ADVANCED_FACE('',(#964),#1018,.F.);
#1077=ADVANCED_FACE('',(#965),#1019,.F.);
#1078=ADVANCED_FACE('',(#966),#1020,.T.);
#1079=ADVANCED_FACE('',(#967),#1021,.F.);
#1080=ADVANCED_FACE('',(#968),#1022,.T.);
#1081=ADVANCED_FACE('',(#969),#1023,.T.);
#1082=ADVANCED_FACE('',(#970),#1024,.F.);
#1083=ADVANCED_FACE('',(#971),#1025,.T.);
#1084=ADVANCED_FACE('',(#972),#1026,.F.);
#1085=ADVANCED_FACE('',(#973),#1027,.T.);
#1086=ADVANCED_FACE('',(#974),#1028,.T.);
#1087=ADVANCED_FACE('',(#975),#1029,.F.);
#1088=ADVANCED_FACE('',(#976),#1030,.T.);
#1089=ADVANCED_FACE('',(#977),#1031,.F.);
#1090=ADVANCED_FACE('',(#978),#1032,.T.);
#1091=ADVANCED_FACE('',(#979),#1033,.T.);
#1092=ADVANCED_FACE('',(#980),#1034,.T.);
#1093=ADVANCED_FACE('',(#981),#1035,.F.);
#1094=ADVANCED_FACE('',(#982),#1036,.T.);
#1095=ADVANCED_FACE('',(#983),#1037,.F.);
#1096=ADVANCED_FACE('',(#984),#1038,.F.);
#1097=ADVANCED_FACE('',(#985),#1039,.T.);
#1098=ADVANCED_FACE('',(#986),#1040,.F.);
#1099=ADVANCED_FACE('',(#987),#1041,.T.);
#1100=ADVANCED_FACE('',(#988),#1042,.T.);
#1101=ADVANCED_FACE('',(#989),#1043,.T.);
#1102=ADVANCED_FACE('',(#990),#1044,.T.);
#1103=ADVANCED_FACE('',(#991),#1045,.T.);
#1104=CLOSED_SHELL('',(#1046,#1047,#1048,#1049,#1050,#1051,#1052,#1053,
#1054,#1055,#1056,#1057,#1058,#1059,#1060,#1061,#1062,#1063,#1064,#1065));
#1105=CLOSED_SHELL('',(#1066,#1067,#1068,#1069,#1070,#1071,#1072,#1073,
#1074,#1075,#1076,#1077,#1078,#1079,#1080,#1081,#1082,#1083,#1084,#1085,
#1086,#1087,#1088,#1089,#1090,#1091,#1092,#1093,#1094,#1095,#1096,#1097,
#1098,#1099,#1100,#1101,#1102,#1103));
#1106=STYLED_ITEM('',(#1108),#1122);
#1107=STYLED_ITEM('',(#1109),#1123);
#1108=PRESENTATION_STYLE_ASSIGNMENT((#1110));
#1109=PRESENTATION_STYLE_ASSIGNMENT((#1111));
#1110=SURFACE_STYLE_USAGE(.BOTH.,#1112);
#1111=SURFACE_STYLE_USAGE(.BOTH.,#1113);
#1112=SURFACE_SIDE_STYLE('',(#1114));
#1113=SURFACE_SIDE_STYLE('',(#1115));
#1114=SURFACE_STYLE_FILL_AREA(#1116);
#1115=SURFACE_STYLE_FILL_AREA(#1117);
#1116=FILL_AREA_STYLE('',(#1118));
#1117=FILL_AREA_STYLE('',(#1119));
#1118=FILL_AREA_STYLE_COLOUR('',#1120);
#1119=FILL_AREA_STYLE_COLOUR('',#1121);
#1120=COLOUR_RGB('',0.823529411764706,0.705882352941177,0.549019607843137);
#1121=COLOUR_RGB('',0.4,0.388235294117647,0.349019607843138);
#1122=MANIFOLD_SOLID_BREP('Part 2',#1104);
#1123=MANIFOLD_SOLID_BREP('Part 1',#1105);
#1124=SHAPE_DEFINITION_REPRESENTATION(#1788,#1126);
#1125=SHAPE_DEFINITION_REPRESENTATION(#1789,#1127);
#1126=SHAPE_REPRESENTATION('Part 2',(#1128),#1778);
#1127=SHAPE_REPRESENTATION('Part 1',(#1157),#1779);
#1128=AXIS2_PLACEMENT_3D('',#1470,#1196,#1197);
#1129=AXIS2_PLACEMENT_3D('',#1471,#1198,#1199);
#1130=AXIS2_PLACEMENT_3D('',#1480,#1204,#1205);
#1131=AXIS2_PLACEMENT_3D('',#1486,#1209,#1210);
#1132=AXIS2_PLACEMENT_3D('',#1492,#1214,#1215);
#1133=AXIS2_PLACEMENT_3D('',#1501,#1220,#1221);
#1134=AXIS2_PLACEMENT_3D('',#1507,#1225,#1226);
#1135=AXIS2_PLACEMENT_3D('',#1513,#1230,#1231);
#1136=AXIS2_PLACEMENT_3D('',#1519,#1235,#1236);
#1137=AXIS2_PLACEMENT_3D('',#1525,#1240,#1241);
#1138=AXIS2_PLACEMENT_3D('',#1531,#1245,#1246);
#1139=AXIS2_PLACEMENT_3D('',#1537,#1250,#1251);
#1140=AXIS2_PLACEMENT_3D('',#1543,#1255,#1256);
#1141=AXIS2_PLACEMENT_3D('',#1549,#1260,#1261);
#1142=AXIS2_PLACEMENT_3D('',#1552,#1264,#1265);
#1143=AXIS2_PLACEMENT_3D('',#1553,#1266,#1267);
#1144=AXIS2_PLACEMENT_3D('',#1555,#1268,#1269);
#1145=AXIS2_PLACEMENT_3D('',#1557,#1270,#1271);
#1146=AXIS2_PLACEMENT_3D('',#1559,#1272,#1273);
#1147=AXIS2_PLACEMENT_3D('',#1562,#1275,#1276);
#1148=AXIS2_PLACEMENT_3D('',#1563,#1277,#1278);
#1149=AXIS2_PLACEMENT_3D('',#1565,#1279,#1280);
#1150=AXIS2_PLACEMENT_3D('',#1567,#1281,#1282);
#1151=AXIS2_PLACEMENT_3D('',#1569,#1283,#1284);
#1152=AXIS2_PLACEMENT_3D('',#1572,#1286,#1287);
#1153=AXIS2_PLACEMENT_3D('',#1573,#1288,#1289);
#1154=AXIS2_PLACEMENT_3D('',#1574,#1290,#1291);
#1155=AXIS2_PLACEMENT_3D('',#1575,#1292,#1293);
#1156=AXIS2_PLACEMENT_3D('',#1576,#1294,#1295);
#1157=AXIS2_PLACEMENT_3D('',#1577,#1296,#1297);
#1158=AXIS2_PLACEMENT_3D('',#1578,#1298,#1299);
#1159=AXIS2_PLACEMENT_3D('',#1603,#1312,#1313);
#1160=AXIS2_PLACEMENT_3D('',#1614,#1320,#1321);
#1161=AXIS2_PLACEMENT_3D('',#1625,#1328,#1329);
#1162=AXIS2_PLACEMENT_3D('',#1671,#1353,#1354);
#1163=AXIS2_PLACEMENT_3D('',#1675,#1357,#1358);
#1164=AXIS2_PLACEMENT_3D('',#1679,#1361,#1362);
#1165=AXIS2_PLACEMENT_3D('',#1681,#1364,#1365);
#1166=AXIS2_PLACEMENT_3D('',#1682,#1366,#1367);
#1167=AXIS2_PLACEMENT_3D('',#1684,#1369,#1370);
#1168=AXIS2_PLACEMENT_3D('',#1691,#1375,#1376);
#1169=AXIS2_PLACEMENT_3D('',#1692,#1377,#1378);
#1170=AXIS2_PLACEMENT_3D('',#1698,#1382,#1383);
#1171=AXIS2_PLACEMENT_3D('',#1702,#1386,#1387);
#1172=AXIS2_PLACEMENT_3D('',#1706,#1390,#1391);
#1173=AXIS2_PLACEMENT_3D('',#1708,#1393,#1394);
#1174=AXIS2_PLACEMENT_3D('',#1709,#1395,#1396);
#1175=AXIS2_PLACEMENT_3D('',#1715,#1400,#1401);
#1176=AXIS2_PLACEMENT_3D('',#1719,#1404,#1405);
#1177=AXIS2_PLACEMENT_3D('',#1723,#1408,#1409);
#1178=AXIS2_PLACEMENT_3D('',#1725,#1411,#1412);
#1179=AXIS2_PLACEMENT_3D('',#1726,#1413,#1414);
#1180=AXIS2_PLACEMENT_3D('',#1732,#1418,#1419);
#1181=AXIS2_PLACEMENT_3D('',#1736,#1422,#1423);
#1182=AXIS2_PLACEMENT_3D('',#1740,#1426,#1427);
#1183=AXIS2_PLACEMENT_3D('',#1742,#1429,#1430);
#1184=AXIS2_PLACEMENT_3D('',#1743,#1431,#1432);
#1185=AXIS2_PLACEMENT_3D('',#1749,#1436,#1437);
#1186=AXIS2_PLACEMENT_3D('',#1751,#1439,#1440);
#1187=AXIS2_PLACEMENT_3D('',#1753,#1442,#1443);
#1188=AXIS2_PLACEMENT_3D('',#1754,#1444,#1445);
#1189=AXIS2_PLACEMENT_3D('',#1760,#1449,#1450);
#1190=AXIS2_PLACEMENT_3D('',#1764,#1453,#1454);
#1191=AXIS2_PLACEMENT_3D('',#1768,#1457,#1458);
#1192=AXIS2_PLACEMENT_3D('',#1770,#1460,#1461);
#1193=AXIS2_PLACEMENT_3D('',#1771,#1462,#1463);
#1194=AXIS2_PLACEMENT_3D('',#1774,#1466,#1467);
#1195=AXIS2_PLACEMENT_3D('',#1775,#1468,#1469);
#1196=DIRECTION('',(0.,0.,1.));
#1197=DIRECTION('',(1.,0.,0.));
#1198=DIRECTION('',(0.,0.99026806874157,0.139173100960065));
#1199=DIRECTION('',(0.,-0.139173100960065,0.99026806874157));
#1200=DIRECTION('',(1.,0.,0.));
#1201=DIRECTION('',(0.,0.139173100960065,-0.99026806874157));
#1202=DIRECTION('',(1.,0.,0.));
#1203=DIRECTION('',(0.,0.139173100960065,-0.99026806874157));
#1204=DIRECTION('',(-1.,0.,0.));
#1205=DIRECTION('',(0.,0.,1.));
#1206=DIRECTION('',(0.,0.99026806874157,0.139173100960065));
#1207=DIRECTION('',(0.,0.139173100960065,-0.99026806874157));
#1208=DIRECTION('',(0.,0.99026806874157,0.139173100960065));
#1209=DIRECTION('',(0.,0.99026806874157,0.139173100960065));
#1210=DIRECTION('',(0.,-0.139173100960065,0.99026806874157));
#1211=DIRECTION('',(1.,0.,0.));
#1212=DIRECTION('',(0.,0.139173100960065,-0.99026806874157));
#1213=DIRECTION('',(1.,0.,0.));
#1214=DIRECTION('',(-1.,0.,0.));
#1215=DIRECTION('',(0.,0.,1.));
#1216=DIRECTION('',(0.,0.99026806874157,0.139173100960065));
#1217=DIRECTION('',(0.,0.139173100960065,-0.99026806874157));
#1218=DIRECTION('',(0.,0.99026806874157,0.139173100960065));
#1219=DIRECTION('',(0.,-0.601815023152048,-0.798635510047294));
#1220=DIRECTION('',(0.,-0.99026806874157,-0.139173100960065));
#1221=DIRECTION('',(0.,0.139173100960065,-0.99026806874157));
#1222=DIRECTION('',(-1.,0.,0.));
#1223=DIRECTION('',(0.,0.139173100960065,-0.99026806874157));
#1224=DIRECTION('',(-1.,0.,0.));
#1225=DIRECTION('',(-1.,0.,0.));
#1226=DIRECTION('',(0.,0.,1.));
#1227=DIRECTION('',(0.,0.99026806874157,0.139173100960065));
#1228=DIRECTION('',(0.,0.139173100960065,-0.99026806874157));
#1229=DIRECTION('',(0.,0.99026806874157,0.139173100960065));
#1230=DIRECTION('',(0.,-0.99026806874157,-0.139173100960065));
#1231=DIRECTION('',(0.,0.139173100960065,-0.99026806874157));
#1232=DIRECTION('',(-1.,0.,0.));
#1233=DIRECTION('',(0.,0.139173100960065,-0.99026806874157));
#1234=DIRECTION('',(-1.,0.,0.));
#1235=DIRECTION('',(-1.,0.,0.));
#1236=DIRECTION('',(0.,0.,1.));
#1237=DIRECTION('',(0.,0.99026806874157,0.139173100960065));
#1238=DIRECTION('',(0.,0.139173100960065,-0.99026806874157));
#1239=DIRECTION('',(0.,0.99026806874157,0.139173100960065));
#1240=DIRECTION('',(0.,0.99026806874157,0.139173100960065));
#1241=DIRECTION('',(0.,-0.139173100960065,0.99026806874157));
#1242=DIRECTION('',(1.,0.,0.));
#1243=DIRECTION('',(0.,0.139173100960065,-0.99026806874157));
#1244=DIRECTION('',(1.,0.,0.));
#1245=DIRECTION('',(-1.,0.,0.));
#1246=DIRECTION('',(0.,0.,1.));
#1247=DIRECTION('',(0.,0.99026806874157,0.139173100960065));
#1248=DIRECTION('',(0.,0.139173100960065,-0.99026806874157));
#1249=DIRECTION('',(0.,0.99026806874157,0.139173100960065));
#1250=DIRECTION('',(0.,0.99026806874157,0.139173100960065));
#1251=DIRECTION('',(0.,-0.139173100960065,0.99026806874157));
#1252=DIRECTION('',(1.,0.,0.));
#1253=DIRECTION('',(0.,0.139173100960065,-0.99026806874157));
#1254=DIRECTION('',(1.,0.,0.));
#1255=DIRECTION('',(-1.,0.,0.));
#1256=DIRECTION('',(0.,0.,1.));
#1257=DIRECTION('',(0.,0.99026806874157,0.139173100960065));
#1258=DIRECTION('',(0.,0.601815023152048,0.798635510047294));
#1259=DIRECTION('',(0.,0.99026806874157,0.139173100960065));
#1260=DIRECTION('',(-1.,0.,0.));
#1261=DIRECTION('',(0.,0.,1.));
#1262=DIRECTION('',(0.,0.99026806874157,0.139173100960065));
#1263=DIRECTION('',(0.,0.99026806874157,0.139173100960065));
#1264=DIRECTION('',(0.,-0.139173100960065,0.99026806874157));
#1265=DIRECTION('',(1.,0.,0.));
#1266=DIRECTION('',(0.,-0.139173100960065,0.99026806874157));
#1267=DIRECTION('',(0.,-0.99026806874157,-0.139173100960065));
#1268=DIRECTION('',(0.,-0.139173100960065,0.99026806874157));
#1269=DIRECTION('',(0.,-0.99026806874157,-0.139173100960065));
#1270=DIRECTION('',(0.,-0.139173100960065,0.99026806874157));
#1271=DIRECTION('',(0.,-0.99026806874157,-0.139173100960065));
#1272=DIRECTION('',(0.,-0.139173100960065,0.99026806874157));
#1273=DIRECTION('',(0.,-0.99026806874157,-0.139173100960065));
#1274=DIRECTION('',(1.,0.,0.));
#1275=DIRECTION('',(0.,-0.139173100960065,0.99026806874157));
#1276=DIRECTION('',(1.,0.,0.));
#1277=DIRECTION('',(0.,-0.139173100960065,0.99026806874157));
#1278=DIRECTION('',(0.,-0.99026806874157,-0.139173100960065));
#1279=DIRECTION('',(0.,-0.139173100960065,0.99026806874157));
#1280=DIRECTION('',(0.,-0.99026806874157,-0.139173100960065));
#1281=DIRECTION('',(0.,-0.139173100960065,0.99026806874157));
#1282=DIRECTION('',(0.,-0.99026806874157,-0.139173100960065));
#1283=DIRECTION('',(0.,-0.139173100960065,0.99026806874157));
#1284=DIRECTION('',(0.,-0.99026806874157,-0.139173100960065));
#1285=DIRECTION('',(-1.,0.,0.));
#1286=DIRECTION('',(0.,-0.798635510047294,0.601815023152048));
#1287=DIRECTION('',(-1.,0.,0.));
#1288=DIRECTION('',(0.,-0.139173100960065,0.99026806874157));
#1289=DIRECTION('',(0.,-0.99026806874157,-0.139173100960065));
#1290=DIRECTION('',(0.,-0.139173100960065,0.99026806874157));
#1291=DIRECTION('',(0.,-0.99026806874157,-0.139173100960065));
#1292=DIRECTION('',(0.,-0.139173100960065,0.99026806874157));
#1293=DIRECTION('',(0.,-0.99026806874157,-0.139173100960065));
#1294=DIRECTION('',(0.,-0.139173100960065,0.99026806874157));
#1295=DIRECTION('',(0.,-0.99026806874157,-0.139173100960065));
#1296=DIRECTION('',(0.,0.,1.));
#1297=DIRECTION('',(1.,0.,0.));
#1298=DIRECTION('',(0.,-0.139173100960065,0.99026806874157));
#1299=DIRECTION('',(0.,-0.99026806874157,-0.139173100960065));
#1300=DIRECTION('',(0.,0.99026806874157,0.139173100960065));
#1301=DIRECTION('',(1.,0.,0.));
#1302=DIRECTION('',(0.,0.99026806874157,0.139173100960065));
#1303=DIRECTION('',(1.,0.,0.));
#1304=DIRECTION('',(0.,0.99026806874157,0.139173100960065));
#1305=DIRECTION('',(1.,0.,0.));
#1306=DIRECTION('',(0.,0.99026806874157,0.139173100960065));
#1307=DIRECTION('',(-1.,0.,0.));
#1308=DIRECTION('',(0.,0.99026806874157,0.139173100960065));
#1309=DIRECTION('',(1.,0.,0.));
#1310=DIRECTION('',(0.,0.99026806874157,0.139173100960065));
#1311=DIRECTION('',(1.,0.,0.));
#1312=DIRECTION('',(-1.,0.,0.));
#1313=DIRECTION('',(0.,0.,1.));
#1314=DIRECTION('',(0.,0.990341026711374,0.13865298702971));
#1315=DIRECTION('',(0.,-0.139173100960068,0.99026806874157));
#1316=DIRECTION('',(0.,0.,-1.));
#1317=DIRECTION('',(0.,1.,0.));
#1318=DIRECTION('',(0.,0.,-1.));
#1319=DIRECTION('',(0.,0.139173100960067,-0.99026806874157));
#1320=DIRECTION('',(-1.,0.,0.));
#1321=DIRECTION('',(0.,0.,1.));
#1322=DIRECTION('',(0.,-0.139173100960068,0.99026806874157));
#1323=DIRECTION('',(0.,0.990341026711374,0.13865298702971));
#1324=DIRECTION('',(0.,0.139173100960067,-0.99026806874157));
#1325=DIRECTION('',(0.,0.,-1.));
#1326=DIRECTION('',(0.,1.,0.));
#1327=DIRECTION('',(0.,0.,-1.));
#1328=DIRECTION('',(0.,0.,1.));
#1329=DIRECTION('',(1.,0.,0.));
#1330=DIRECTION('',(-1.,0.,0.));
#1331=DIRECTION('',(0.,-1.,0.));
#1332=DIRECTION('',(-1.,0.,0.));
#1333=DIRECTION('',(0.,-1.,0.));
#1334=DIRECTION('',(0.,1.,0.));
#1335=DIRECTION('',(-1.,0.,0.));
#1336=DIRECTION('',(0.,1.,0.));
#1337=DIRECTION('',(-1.,0.,0.));
#1338=DIRECTION('',(0.,1.,0.));
#1339=DIRECTION('',(-1.,0.,0.));
#1340=DIRECTION('',(0.,1.,0.));
#1341=DIRECTION('',(-1.,0.,0.));
#1342=DIRECTION('',(0.,1.,0.));
#1343=DIRECTION('',(-1.,0.,0.));
#1344=DIRECTION('',(0.,1.,0.));
#1345=DIRECTION('',(-1.,0.,0.));
#1346=DIRECTION('',(0.,-1.,0.));
#1347=DIRECTION('',(1.,0.,0.));
#1348=DIRECTION('',(0.,1.,0.));
#1349=DIRECTION('',(1.,0.,0.));
#1350=DIRECTION('',(1.,0.,0.));
#1351=DIRECTION('',(0.,1.,0.));
#1352=DIRECTION('',(1.,0.,0.));
#1353=DIRECTION('',(0.,1.,0.));
#1354=DIRECTION('',(0.,0.,1.));
#1355=DIRECTION('',(1.,0.,0.));
#1356=DIRECTION('',(0.,0.,-1.));
#1357=DIRECTION('',(-1.,0.,0.));
#1358=DIRECTION('',(0.,0.,1.));
#1359=DIRECTION('',(0.,1.,0.));
#1360=DIRECTION('',(0.,0.,-1.));
#1361=DIRECTION('',(0.,1.,0.));
#1362=DIRECTION('',(0.,0.,1.));
#1363=DIRECTION('',(1.,0.,0.));
#1364=DIRECTION('',(0.,0.,1.));
#1365=DIRECTION('',(1.,0.,0.));
#1366=DIRECTION('',(0.,1.,0.));
#1367=DIRECTION('',(0.,0.,1.));
#1368=DIRECTION('',(0.,0.,-1.));
#1369=DIRECTION('',(-1.,0.,0.));
#1370=DIRECTION('',(0.,0.,1.));
#1371=DIRECTION('',(0.,-0.139173100960065,0.99026806874157));
#1372=DIRECTION('',(0.,0.,-1.));
#1373=DIRECTION('',(0.,-0.139173100960065,0.99026806874157));
#1374=DIRECTION('',(0.,0.99026806874157,0.139173100960065));
#1375=DIRECTION('',(0.,1.,0.));
#1376=DIRECTION('',(0.,0.,1.));
#1377=DIRECTION('',(-1.,0.,0.));
#1378=DIRECTION('',(0.,0.,1.));
#1379=DIRECTION('',(0.,-0.139173100960065,0.99026806874157));
#1380=DIRECTION('',(0.,-0.139173100960065,0.99026806874157));
#1381=DIRECTION('',(0.,-0.99026806874157,-0.139173100960065));
#1382=DIRECTION('',(0.,-0.99026806874157,-0.139173100960065));
#1383=DIRECTION('',(0.,0.139173100960065,-0.99026806874157));
#1384=DIRECTION('',(1.,0.,0.));
#1385=DIRECTION('',(0.,-0.139173100960065,0.99026806874157));
#1386=DIRECTION('',(0.,-0.99026806874157,-0.139173100960065));
#1387=DIRECTION('',(0.,0.139173100960065,-0.99026806874157));
#1388=DIRECTION('',(0.,-0.139173100960065,0.99026806874157));
#1389=DIRECTION('',(1.,0.,0.));
#1390=DIRECTION('',(0.,-0.139173100960065,0.99026806874157));
#1391=DIRECTION('',(1.,0.,0.));
#1392=DIRECTION('',(0.,-0.99026806874157,-0.139173100960065));
#1393=DIRECTION('',(-1.,0.,0.));
#1394=DIRECTION('',(0.,0.,1.));
#1395=DIRECTION('',(-1.,0.,0.));
#1396=DIRECTION('',(0.,0.,1.));
#1397=DIRECTION('',(0.,-0.139173100960065,0.99026806874157));
#1398=DIRECTION('',(0.,-0.139173100960065,0.99026806874157));
#1399=DIRECTION('',(0.,-0.99026806874157,-0.139173100960065));
#1400=DIRECTION('',(0.,-0.99026806874157,-0.139173100960065));
#1401=DIRECTION('',(0.,0.139173100960065,-0.99026806874157));
#1402=DIRECTION('',(1.,0.,0.));
#1403=DIRECTION('',(0.,-0.139173100960065,0.99026806874157));
#1404=DIRECTION('',(0.,-0.99026806874157,-0.139173100960065));
#1405=DIRECTION('',(0.,0.139173100960065,-0.99026806874157));
#1406=DIRECTION('',(0.,-0.139173100960065,0.99026806874157));
#1407=DIRECTION('',(1.,0.,0.));
#1408=DIRECTION('',(0.,-0.139173100960065,0.99026806874157));
#1409=DIRECTION('',(1.,0.,0.));
#1410=DIRECTION('',(0.,-0.99026806874157,-0.139173100960065));
#1411=DIRECTION('',(-1.,0.,0.));
#1412=DIRECTION('',(0.,0.,1.));
#1413=DIRECTION('',(-1.,0.,0.));
#1414=DIRECTION('',(0.,0.,1.));
#1415=DIRECTION('',(0.,-0.139173100960065,0.99026806874157));
#1416=DIRECTION('',(0.,-0.139173100960065,0.99026806874157));
#1417=DIRECTION('',(0.,-0.99026806874157,-0.139173100960065));
#1418=DIRECTION('',(0.,-0.99026806874157,-0.139173100960065));
#1419=DIRECTION('',(0.,0.139173100960065,-0.99026806874157));
#1420=DIRECTION('',(1.,0.,0.));
#1421=DIRECTION('',(0.,-0.139173100960065,0.99026806874157));
#1422=DIRECTION('',(0.,-0.99026806874157,-0.139173100960065));
#1423=DIRECTION('',(0.,0.139173100960065,-0.99026806874157));
#1424=DIRECTION('',(0.,-0.139173100960065,0.99026806874157));
#1425=DIRECTION('',(1.,0.,0.));
#1426=DIRECTION('',(0.,-0.139173100960065,0.99026806874157));
#1427=DIRECTION('',(1.,0.,0.));
#1428=DIRECTION('',(0.,-0.99026806874157,-0.139173100960065));
#1429=DIRECTION('',(-1.,0.,0.));
#1430=DIRECTION('',(0.,0.,1.));
#1431=DIRECTION('',(0.,-0.139173100960065,0.99026806874157));
#1432=DIRECTION('',(1.,0.,0.));
#1433=DIRECTION('',(-1.,0.,0.));
#1434=DIRECTION('',(-1.,0.,0.));
#1435=DIRECTION('',(0.,0.99026806874157,0.139173100960065));
#1436=DIRECTION('',(0.,0.99026806874157,0.139173100960065));
#1437=DIRECTION('',(0.,-0.139173100960065,0.99026806874157));
#1438=DIRECTION('',(0.,-0.139173100960065,0.99026806874157));
#1439=DIRECTION('',(0.,0.99026806874157,0.139173100960065));
#1440=DIRECTION('',(0.,-0.139173100960065,0.99026806874157));
#1441=DIRECTION('',(0.,-0.139173100960065,0.99026806874157));
#1442=DIRECTION('',(1.,0.,0.));
#1443=DIRECTION('',(0.,0.,-1.));
#1444=DIRECTION('',(0.,-0.99026806874157,-0.139173100960065));
#1445=DIRECTION('',(0.,0.139173100960065,-0.99026806874157));
#1446=DIRECTION('',(0.,-0.139173100960065,0.99026806874157));
#1447=DIRECTION('',(0.,-0.139173100960065,0.99026806874157));
#1448=DIRECTION('',(1.,0.,0.));
#1449=DIRECTION('',(1.,0.,0.));
#1450=DIRECTION('',(0.,0.,-1.));
#1451=DIRECTION('',(0.,0.99026806874157,0.139173100960065));
#1452=DIRECTION('',(0.,-0.139173100960065,0.99026806874157));
#1453=DIRECTION('',(1.,0.,0.));
#1454=DIRECTION('',(0.,0.,-1.));
#1455=DIRECTION('',(0.,-0.139173100960065,0.99026806874157));
#1456=DIRECTION('',(0.,0.99026806874157,0.139173100960065));
#1457=DIRECTION('',(0.,-0.139173100960065,0.99026806874157));
#1458=DIRECTION('',(1.,0.,0.));
#1459=DIRECTION('',(1.,0.,0.));
#1460=DIRECTION('',(0.,-0.99026806874157,-0.139173100960065));
#1461=DIRECTION('',(0.,0.139173100960065,-0.99026806874157));
#1462=DIRECTION('',(0.,-0.13865298702971,0.990341026711374));
#1463=DIRECTION('',(0.,-0.990341026711374,-0.13865298702971));
#1464=DIRECTION('',(-1.,0.,0.));
#1465=DIRECTION('',(-1.,0.,0.));
#1466=DIRECTION('',(0.,-0.99026806874157,-0.139173100960068));
#1467=DIRECTION('',(0.,0.139173100960068,-0.99026806874157));
#1468=DIRECTION('',(0.,0.99026806874157,0.139173100960067));
#1469=DIRECTION('',(0.,-0.139173100960067,0.99026806874157));
#1470=CARTESIAN_POINT('',(0.,0.,0.));
#1471=CARTESIAN_POINT('',(0.,-0.0836066924038403,0.0139610722749663));
#1472=CARTESIAN_POINT('',(0.,-0.08305,0.01));
#1473=CARTESIAN_POINT('',(-0.1625,-0.08305,0.01));
#1474=CARTESIAN_POINT('',(0.1625,-0.08305,0.01));
#1475=CARTESIAN_POINT('',(0.1625,-0.0836066924038403,0.0139610722749663));
#1476=CARTESIAN_POINT('',(0.1625,-0.0836066924038403,0.0139610722749663));
#1477=CARTESIAN_POINT('',(0.,-0.0836066924038403,0.0139610722749663));
#1478=CARTESIAN_POINT('',(-0.1625,-0.0836066924038403,0.0139610722749663));
#1479=CARTESIAN_POINT('',(-0.1625,-0.0836066924038403,0.0139610722749663));
#1480=CARTESIAN_POINT('',(0.1625,-0.00216530048000157,0.0254069134752672));
#1481=CARTESIAN_POINT('',(0.1625,-0.00160860807616131,0.0214458412003009));
#1482=CARTESIAN_POINT('',(0.1625,0.08305,0.0333438326440672));
#1483=CARTESIAN_POINT('',(0.1625,0.0824933075961597,0.0373049049190335));
#1484=CARTESIAN_POINT('',(0.1625,0.0824933075961597,0.0373049049190335));
#1485=CARTESIAN_POINT('',(0.1625,-0.00216530048000157,0.0254069134752672));
#1486=CARTESIAN_POINT('',(0.,0.0824933075961597,0.0373049049190335));
#1487=CARTESIAN_POINT('',(0.,0.08305,0.0333438326440672));
#1488=CARTESIAN_POINT('',(-0.1625,0.08305,0.0333438326440672));
#1489=CARTESIAN_POINT('',(-0.1625,0.0824933075961597,0.0373049049190335));
#1490=CARTESIAN_POINT('',(-0.1625,0.0824933075961597,0.0373049049190335));
#1491=CARTESIAN_POINT('',(0.,0.0824933075961597,0.0373049049190335));
#1492=CARTESIAN_POINT('',(0.1575,-0.00216530048000157,0.0254069134752672));
#1493=CARTESIAN_POINT('',(0.1575,-0.00160860807616131,0.0214458412003009));
#1494=CARTESIAN_POINT('',(0.1575,-0.0686668568098182,0.0120214189495922));
#1495=CARTESIAN_POINT('',(0.1575,0.0441408190574533,0.0278755038768153));
#1496=CARTESIAN_POINT('',(0.1575,-0.0692235492136584,0.0159824912245584));
#1497=CARTESIAN_POINT('',(0.1575,-0.0692235492136584,0.0159824912245584));
#1498=CARTESIAN_POINT('',(0.1575,-0.00216530048000157,0.0254069134752672));
#1499=CARTESIAN_POINT('',(0.1575,0.0475451989285793,0.0323932685556218));
#1500=CARTESIAN_POINT('',(0.1575,0.0475451989285793,0.0323932685556218));
#1501=CARTESIAN_POINT('',(0.153363231327655,-0.0692235492136584,0.0159824912245584));
#1502=CARTESIAN_POINT('',(0.153363231327655,-0.0686668568098182,0.0120214189495922));
#1503=CARTESIAN_POINT('',(0.14922646265531,-0.0686668568098182,0.0120214189495922));
#1504=CARTESIAN_POINT('',(0.14922646265531,-0.0692235492136584,0.0159824912245584));
#1505=CARTESIAN_POINT('',(0.14922646265531,-0.0692235492136584,0.0159824912245584));
#1506=CARTESIAN_POINT('',(0.153363231327655,-0.0692235492136584,0.0159824912245584));
#1507=CARTESIAN_POINT('',(0.14922646265531,-0.0711877401515532,0.0157064421906318));
#1508=CARTESIAN_POINT('',(0.14922646265531,-0.070631047747713,0.0117453699156656));
#1509=CARTESIAN_POINT('',(0.14922646265531,-0.0725952386856078,0.0114693208817389));
#1510=CARTESIAN_POINT('',(0.14922646265531,-0.0731519310894481,0.0154303931567053));
#1511=CARTESIAN_POINT('',(0.14922646265531,-0.0731519310894481,0.0154303931567053));
#1512=CARTESIAN_POINT('',(0.14922646265531,-0.0711877401515532,0.0157064421906318));
#1513=CARTESIAN_POINT('',(0.136065530684115,-0.0731519310894481,0.0154303931567053));
#1514=CARTESIAN_POINT('',(0.136065530684115,-0.0725952386856078,0.0114693208817389));
#1515=CARTESIAN_POINT('',(0.122904598712921,-0.0725952386856078,0.0114693208817389));
#1516=CARTESIAN_POINT('',(0.122904598712921,-0.0731519310894481,0.0154303931567053));
#1517=CARTESIAN_POINT('',(0.122904598712921,-0.0731519310894481,0.0154303931567053));
#1518=CARTESIAN_POINT('',(0.136065530684115,-0.0731519310894481,0.0154303931567053));
#1519=CARTESIAN_POINT('',(0.122904598712921,-0.0758793117466442,0.0150470848025918));
#1520=CARTESIAN_POINT('',(0.122904598712921,-0.0753226193428039,0.0110860125276255));
#1521=CARTESIAN_POINT('',(0.122904598712921,-0.07805,0.010702704173512));
#1522=CARTESIAN_POINT('',(0.122904598712921,-0.0786066924038402,0.0146637764484782));
#1523=CARTESIAN_POINT('',(0.122904598712921,-0.0786066924038402,0.0146637764484782));
#1524=CARTESIAN_POINT('',(0.122904598712921,-0.0758793117466442,0.0150470848025918));
#1525=CARTESIAN_POINT('',(0.,-0.0786066924038402,0.0146637764484782));
#1526=CARTESIAN_POINT('',(0.,-0.07805,0.010702704173512));
#1527=CARTESIAN_POINT('',(-0.122146114706993,-0.07805,0.010702704173512));
#1528=CARTESIAN_POINT('',(-0.122146114706993,-0.0786066924038402,0.0146637764484782));
#1529=CARTESIAN_POINT('',(-0.122146114706993,-0.0786066924038402,0.0146637764484782));
#1530=CARTESIAN_POINT('',(0.,-0.0786066924038402,0.0146637764484782));
#1531=CARTESIAN_POINT('',(-0.122146114706993,-0.0758793117466442,0.0150470848025918));
#1532=CARTESIAN_POINT('',(-0.122146114706993,-0.0753226193428039,0.0110860125276255));
#1533=CARTESIAN_POINT('',(-0.122146114706993,-0.0725952386856078,0.0114693208817389));
#1534=CARTESIAN_POINT('',(-0.122146114706993,-0.0731519310894481,0.0154303931567053));
#1535=CARTESIAN_POINT('',(-0.122146114706993,-0.0731519310894481,0.0154303931567053));
#1536=CARTESIAN_POINT('',(-0.122146114706993,-0.0758793117466442,0.0150470848025918));
#1537=CARTESIAN_POINT('',(-0.139823057353497,-0.0731519310894481,0.0154303931567053));
#1538=CARTESIAN_POINT('',(-0.139823057353497,-0.0725952386856078,0.0114693208817389));
#1539=CARTESIAN_POINT('',(-0.1575,-0.0725952386856078,0.0114693208817389));
#1540=CARTESIAN_POINT('',(-0.1575,-0.0731519310894481,0.0154303931567053));
#1541=CARTESIAN_POINT('',(-0.1575,-0.0731519310894481,0.0154303931567053));
#1542=CARTESIAN_POINT('',(-0.139823057353497,-0.0731519310894481,0.0154303931567053));
#1543=CARTESIAN_POINT('',(-0.1575,-0.00216530048000157,0.0254069134752672));
#1544=CARTESIAN_POINT('',(-0.1575,-0.00160860807616131,0.0214458412003009));
#1545=CARTESIAN_POINT('',(-0.1575,0.0441408190574533,0.0278755038768153));
#1546=CARTESIAN_POINT('',(-0.1575,0.0261831267644662,0.00404484131115408));
#1547=CARTESIAN_POINT('',(-0.1575,0.0475451989285793,0.0323932685556218));
#1548=CARTESIAN_POINT('',(-0.1575,-0.00216530048000157,0.0254069134752672));
#1549=CARTESIAN_POINT('',(-0.1625,-0.00216530048000157,0.0254069134752672));
#1550=CARTESIAN_POINT('',(-0.1625,-0.00160860807616131,0.0214458412003009));
#1551=CARTESIAN_POINT('',(-0.1625,-0.00216530048000157,0.0254069134752672));
#1552=CARTESIAN_POINT('',(0.,-0.000556692403840272,0.0256329885969999));
#1553=CARTESIAN_POINT('',(-0.144368493335399,-0.0752477610903013,0.015135843458991));
#1554=CARTESIAN_POINT('',(-0.144368493335399,-0.076337055965917,0.0149827530479349));
#1555=CARTESIAN_POINT('',(0.14507339077348,0.0655019182079441,0.0349169208716603));
#1556=CARTESIAN_POINT('',(0.14507339077348,0.0644126233323284,0.0347638304606042));
#1557=CARTESIAN_POINT('',(-0.087555213208159,0.0652991067150514,0.034888417575162));
#1558=CARTESIAN_POINT('',(-0.087555213208159,0.0642098118394357,0.0347353271641059));
#1559=CARTESIAN_POINT('',(0.152473583808486,-0.0727611022915176,0.0154853205621921));
#1560=CARTESIAN_POINT('',(0.152473583808486,-0.0738503971671333,0.015332230151136));
#1561=CARTESIAN_POINT('',(0.1575,0.0475451989285793,0.0323932685556218));
#1562=CARTESIAN_POINT('',(0.,-9.97465998686664E-18,0.0216719163220336));
#1563=CARTESIAN_POINT('',(-0.144368493335399,-0.0746910686864611,0.0111747711840247));
#1564=CARTESIAN_POINT('',(-0.144368493335399,-0.0757803635620768,0.0110216807729686));
#1565=CARTESIAN_POINT('',(0.14507339077348,0.0660586106117844,0.030955848596694));
#1566=CARTESIAN_POINT('',(0.14507339077348,0.0649693157361687,0.030802758185638));
#1567=CARTESIAN_POINT('',(-0.087555213208159,0.0658557991188916,0.0309273453001956));
#1568=CARTESIAN_POINT('',(-0.087555213208159,0.0647665042432759,0.0307742548891396));
#1569=CARTESIAN_POINT('',(0.152473583808486,-0.0722044098876774,0.0115242482872258));
#1570=CARTESIAN_POINT('',(0.152473583808486,-0.0732937047632931,0.0113711578761697));
#1571=CARTESIAN_POINT('',(0.,0.0441408190574533,0.0278755038768153));
#1572=CARTESIAN_POINT('',(0.,0.0475451989285793,0.0323932685556218));
#1573=CARTESIAN_POINT('',(0.152473583808486,-0.0720652367867173,0.0105339802184843));
#1574=CARTESIAN_POINT('',(-0.087555213208159,0.0659949722198517,0.0299370772314541));
#1575=CARTESIAN_POINT('',(0.14507339077348,0.0661977837127444,0.0299655805279524));
#1576=CARTESIAN_POINT('',(-0.144368493335399,-0.074551895585501,0.0101845031152831));
#1577=CARTESIAN_POINT('',(0.,0.,0.));
#1578=CARTESIAN_POINT('',(0.,-0.08305,0.01));
#1579=CARTESIAN_POINT('',(-0.1625,-0.00160860807616131,0.0214458412003009));
#1580=CARTESIAN_POINT('',(-0.1625,0.0768412597886536,0.0324712511123143));
#1581=CARTESIAN_POINT('',(-0.1625,0.08305,0.0333438326440672));
#1582=CARTESIAN_POINT('',(0.,0.0768412597886536,0.0324712511123143));
#1583=CARTESIAN_POINT('',(-0.1575,0.0768412597886536,0.0324712511123143));
#1584=CARTESIAN_POINT('',(-0.1575,-0.00160860807616131,0.0214458412003009));
#1585=CARTESIAN_POINT('',(-0.1575,0.07805,0.0326411284705552));
#1586=CARTESIAN_POINT('',(0.,0.07805,0.0326411284705552));
#1587=CARTESIAN_POINT('',(0.1575,0.07805,0.0326411284705552));
#1588=CARTESIAN_POINT('',(0.1575,-0.00160860807616131,0.0214458412003009));
#1589=CARTESIAN_POINT('',(0.1575,-0.07805,0.010702704173512));
#1590=CARTESIAN_POINT('',(0.,-0.07805,0.010702704173512));
#1591=CARTESIAN_POINT('',(-0.1575,-0.07805,0.010702704173512));
#1592=CARTESIAN_POINT('',(-0.1575,-0.00160860807616131,0.0214458412003009));
#1593=CARTESIAN_POINT('',(-0.1575,0.0518003932404494,0.0289519868259585));
#1594=CARTESIAN_POINT('',(0.,0.0518003932404494,0.0289519868259585));
#1595=CARTESIAN_POINT('',(-0.1625,0.0518003932404494,0.0289519868259585));
#1596=CARTESIAN_POINT('',(-0.1625,-0.00160860807616131,0.0214458412003009));
#1597=CARTESIAN_POINT('',(-0.1625,-0.08305,0.01));
#1598=CARTESIAN_POINT('',(0.,-0.08305,0.01));
#1599=CARTESIAN_POINT('',(0.1625,-0.08305,0.01));
#1600=CARTESIAN_POINT('',(0.1625,-0.00160860807616131,0.0214458412003009));
#1601=CARTESIAN_POINT('',(0.1625,0.08305,0.0333438326440672));
#1602=CARTESIAN_POINT('',(0.,0.08305,0.0333438326440672));
#1603=CARTESIAN_POINT('',(-0.1625,0.,0.01));
#1604=CARTESIAN_POINT('',(-0.1625,0.0647622900230615,0.0275704428871472));
#1605=CARTESIAN_POINT('',(-0.1625,0.052240932579465,0.0258173865516074));
#1606=CARTESIAN_POINT('',(-0.1625,0.0772836474666579,0.0293234992226869));
#1607=CARTESIAN_POINT('',(-0.1625,0.0770611467111019,0.0309066743619778));
#1608=CARTESIAN_POINT('',(-0.1625,0.08305,0.01));
#1609=CARTESIAN_POINT('',(-0.1625,0.08305,0.));
#1610=CARTESIAN_POINT('',(-0.1625,0.,0.));
#1611=CARTESIAN_POINT('',(-0.1625,-0.08305,0.));
#1612=CARTESIAN_POINT('',(-0.1625,-0.08305,0.01));
#1613=CARTESIAN_POINT('',(-0.1625,0.0520193559934033,0.0273939858832601));
#1614=CARTESIAN_POINT('',(-0.1575,0.,0.01));
#1615=CARTESIAN_POINT('',(-0.1575,0.0784498678648149,0.0210254099120136));
#1616=CARTESIAN_POINT('',(-0.1575,0.0772836474666579,0.0293234992226869));
#1617=CARTESIAN_POINT('',(-0.1575,-0.00116763084170578,0.0183399049048037));
#1618=CARTESIAN_POINT('',(-0.1575,0.052240932579465,0.0258173865516074));
#1619=CARTESIAN_POINT('',(-0.1575,0.0534090013166107,0.0175061456256577));
#1620=CARTESIAN_POINT('',(-0.1575,-0.07805,0.01));
#1621=CARTESIAN_POINT('',(-0.1575,-0.07805,0.005));
#1622=CARTESIAN_POINT('',(-0.1575,0.,0.005));
#1623=CARTESIAN_POINT('',(-0.1575,0.07805,0.005));
#1624=CARTESIAN_POINT('',(-0.1575,0.07805,0.01));
#1625=CARTESIAN_POINT('',(0.,0.,0.005));
#1626=CARTESIAN_POINT('',(0.0294321533292532,0.0507787654247911,0.005));
#1627=CARTESIAN_POINT('',(0.120878700166941,0.0507787654247911,0.005));
#1628=CARTESIAN_POINT('',(-0.0620143935084343,0.0507787654247911,0.005));
#1629=CARTESIAN_POINT('',(-0.0620143935084343,0.0730143556943114,0.005));
#1630=CARTESIAN_POINT('',(-0.0620143935084343,0.0747680255136076,0.005));
#1631=CARTESIAN_POINT('',(0.0294321533292532,0.0747680255136076,0.005));
#1632=CARTESIAN_POINT('',(0.120878700166941,0.0747680255136076,0.005));
#1633=CARTESIAN_POINT('',(0.120878700166941,0.0730143556943114,0.005));
#1634=CARTESIAN_POINT('',(-0.0150829113554211,-0.0576923960248057,0.005));
#1635=CARTESIAN_POINT('',(-0.0150829113554211,-0.0668960227709912,0.005));
#1636=CARTESIAN_POINT('',(-0.0150829113554211,-0.0554545558610164,0.005));
#1637=CARTESIAN_POINT('',(0.00133639352861784,-0.0554545558610164,0.005));
#1638=CARTESIAN_POINT('',(0.0177556984126567,-0.0554545558610164,0.005));
#1639=CARTESIAN_POINT('',(0.0177556984126567,-0.0576923960248057,0.005));
#1640=CARTESIAN_POINT('',(0.0177556984126567,-0.0668960227709912,0.005));
#1641=CARTESIAN_POINT('',(0.00133639352861784,-0.0668960227709912,0.005));
#1642=CARTESIAN_POINT('',(-0.0722768157720567,-0.0567346033999745,0.005));
#1643=CARTESIAN_POINT('',(-0.0722768157720567,-0.0635473026016674,0.005));
#1644=CARTESIAN_POINT('',(-0.0722768157720567,-0.0568498546652775,0.005));
#1645=CARTESIAN_POINT('',(-0.0633830297738314,-0.0568498546652775,0.005));
#1646=CARTESIAN_POINT('',(-0.0544892437756062,-0.0568498546652775,0.005));
#1647=CARTESIAN_POINT('',(-0.0544892437756062,-0.0567346033999745,0.005));
#1648=CARTESIAN_POINT('',(-0.0544892437756062,-0.0635473026016674,0.005));
#1649=CARTESIAN_POINT('',(-0.0633830297738314,-0.0635473026016674,0.005));
#1650=CARTESIAN_POINT('',(-0.145616382360458,0.0324769471412476,0.005));
#1651=CARTESIAN_POINT('',(-0.145616382360458,0.027426332910557,0.005));
#1652=CARTESIAN_POINT('',(-0.145616382360458,0.03412377514864,0.005));
#1653=CARTESIAN_POINT('',(-0.00509450584650045,0.03412377514864,0.005));
#1654=CARTESIAN_POINT('',(0.135427370667457,0.03412377514864,0.005));
#1655=CARTESIAN_POINT('',(0.135427370667457,0.0324769471412476,0.005));
#1656=CARTESIAN_POINT('',(0.135427370667457,0.027426332910557,0.005));
#1657=CARTESIAN_POINT('',(-0.00509450584650045,0.027426332910557,0.005));
#1658=CARTESIAN_POINT('',(0.149657443165779,-0.0118551687696997,0.005));
#1659=CARTESIAN_POINT('',(0.149657443165779,0.0335656620850167,0.005));
#1660=CARTESIAN_POINT('',(0.149657443165779,-0.0624310574800646,0.005));
#1661=CARTESIAN_POINT('',(0.153578721582889,0.0335656620850166,0.005));
#1662=CARTESIAN_POINT('',(0.1575,0.0335656620850166,0.005));
#1663=CARTESIAN_POINT('',(0.1575,0.,0.005));
#1664=CARTESIAN_POINT('',(0.1575,0.07805,0.005));
#1665=CARTESIAN_POINT('',(0.,0.07805,0.005));
#1666=CARTESIAN_POINT('',(0.,-0.07805,0.005));
#1667=CARTESIAN_POINT('',(0.1575,-0.07805,0.005));
#1668=CARTESIAN_POINT('',(0.1575,0.,0.005));
#1669=CARTESIAN_POINT('',(0.1575,-0.0624310574800646,0.005));
#1670=CARTESIAN_POINT('',(0.153578721582889,-0.0624310574800646,0.005));
#1671=CARTESIAN_POINT('',(0.,-0.08305,0.01));
#1672=CARTESIAN_POINT('',(0.,-0.08305,0.));
#1673=CARTESIAN_POINT('',(0.1625,-0.08305,0.));
#1674=CARTESIAN_POINT('',(0.1625,-0.08305,0.01));
#1675=CARTESIAN_POINT('',(0.1625,0.,0.01));
#1676=CARTESIAN_POINT('',(0.1625,0.,0.));
#1677=CARTESIAN_POINT('',(0.1625,0.08305,0.));
#1678=CARTESIAN_POINT('',(0.1625,0.08305,0.01));
#1679=CARTESIAN_POINT('',(0.,0.08305,0.01));
#1680=CARTESIAN_POINT('',(0.,0.08305,0.));
#1681=CARTESIAN_POINT('',(0.,0.,0.));
#1682=CARTESIAN_POINT('',(0.,-0.07805,0.01));
#1683=CARTESIAN_POINT('',(0.1575,-0.07805,0.01));
#1684=CARTESIAN_POINT('',(0.1575,0.,0.01));
#1685=CARTESIAN_POINT('',(0.1575,-0.0589238410243813,-0.0199551417786162));
#1686=CARTESIAN_POINT('',(0.1575,-0.0627335831522942,0.00715258200842636));
#1687=CARTESIAN_POINT('',(0.1575,0.07805,0.01));
#1688=CARTESIAN_POINT('',(0.1575,0.0352135034849818,-0.00672500080460373));
#1689=CARTESIAN_POINT('',(0.1575,0.031403761357069,0.0203827229824389));
#1690=CARTESIAN_POINT('',(0.1575,-0.0156649108976126,0.0137676524954326));
#1691=CARTESIAN_POINT('',(0.,0.07805,0.01));
#1692=CARTESIAN_POINT('',(0.135427370667457,0.0324769471412476,-0.00710959871736227));
#1693=CARTESIAN_POINT('',(0.135427370667457,0.0291930879106697,-0.00757111503467285));
#1694=CARTESIAN_POINT('',(0.135427370667457,0.0253833457827568,0.0195366087523697));
#1695=CARTESIAN_POINT('',(0.135427370667457,0.0357608063718255,-0.00664808240005169));
#1696=CARTESIAN_POINT('',(0.135427370667457,0.0319510642439127,0.0204596413869909));
#1697=CARTESIAN_POINT('',(0.135427370667457,0.0286672050133348,0.0199981250696803));
#1698=CARTESIAN_POINT('',(-0.00509450584650045,0.0291930879106697,-0.00757111503467285));
#1699=CARTESIAN_POINT('',(-0.00509450584650045,0.0253833457827568,0.0195366087523697));
#1700=CARTESIAN_POINT('',(-0.145616382360458,0.0253833457827568,0.0195366087523697));
#1701=CARTESIAN_POINT('',(-0.145616382360458,0.0291930879106697,-0.00757111503467285));
#1702=CARTESIAN_POINT('',(-0.00509450584650045,0.0357608063718255,-0.00664808240005169));
#1703=CARTESIAN_POINT('',(-0.145616382360458,0.0357608063718255,-0.00664808240005169));
#1704=CARTESIAN_POINT('',(-0.145616382360458,0.0319510642439127,0.0204596413869909));
#1705=CARTESIAN_POINT('',(-0.00509450584650045,0.0319510642439127,0.0204596413869909));
#1706=CARTESIAN_POINT('',(0.00594180881977083,0.00234800204634666,0.0162992023159982));
#1707=CARTESIAN_POINT('',(-0.145616382360458,0.0286672050133348,0.0199981250696803));
#1708=CARTESIAN_POINT('',(-0.145616382360458,0.0324769471412476,-0.00710959871736227));
#1709=CARTESIAN_POINT('',(-0.0544892437756062,-0.0567346033999745,-0.0196474644955202));
#1710=CARTESIAN_POINT('',(-0.0544892437756062,-0.0600184654245202,-0.0201089812054973));
#1711=CARTESIAN_POINT('',(-0.0544892437756062,-0.063828207552433,0.00699874258154524));
#1712=CARTESIAN_POINT('',(-0.0544892437756062,-0.0534507413754288,-0.019185947785543));
#1713=CARTESIAN_POINT('',(-0.0544892437756062,-0.0572604835033417,0.00792177600149951));
#1714=CARTESIAN_POINT('',(-0.0544892437756062,-0.0605443455278873,0.00746025929152237));
#1715=CARTESIAN_POINT('',(-0.0633830297738314,-0.0600184654245202,-0.0201089812054973));
#1716=CARTESIAN_POINT('',(-0.0633830297738314,-0.063828207552433,0.00699874258154524));
#1717=CARTESIAN_POINT('',(-0.0722768157720567,-0.063828207552433,0.00699874258154524));
#1718=CARTESIAN_POINT('',(-0.0722768157720567,-0.0600184654245202,-0.0201089812054973));
#1719=CARTESIAN_POINT('',(-0.0633830297738314,-0.0534507413754288,-0.019185947785543));
#1720=CARTESIAN_POINT('',(-0.0722768157720567,-0.0534507413754288,-0.019185947785543));
#1721=CARTESIAN_POINT('',(-0.0722768157720567,-0.0572604835033417,0.00792177600149951));
#1722=CARTESIAN_POINT('',(-0.0633830297738314,-0.0572604835033417,0.00792177600149951));
#1723=CARTESIAN_POINT('',(0.00594180881977083,0.00234800204634666,0.0162992023159982));
#1724=CARTESIAN_POINT('',(-0.0722768157720567,-0.0605443455278873,0.00746025929152237));
#1725=CARTESIAN_POINT('',(-0.0722768157720567,-0.0567346033999745,-0.0196474644955202));
#1726=CARTESIAN_POINT('',(0.0177556984126567,-0.0576923960248057,-0.0197820734704858));
#1727=CARTESIAN_POINT('',(0.0177556984126567,-0.0633023237237755,-0.0205704973919191));
#1728=CARTESIAN_POINT('',(0.0177556984126567,-0.0671120658516884,0.00653722639512351));
#1729=CARTESIAN_POINT('',(0.0177556984126567,-0.0520824683258359,-0.0189936495490525));
#1730=CARTESIAN_POINT('',(0.0177556984126567,-0.0558922104537487,0.00811407423799009));
#1731=CARTESIAN_POINT('',(0.0177556984126567,-0.0615021381527185,0.0073256503165568));
#1732=CARTESIAN_POINT('',(0.00133639352861784,-0.0633023237237755,-0.0205704973919191));
#1733=CARTESIAN_POINT('',(0.00133639352861784,-0.0671120658516884,0.00653722639512351));
#1734=CARTESIAN_POINT('',(-0.0150829113554211,-0.0671120658516884,0.00653722639512351));
#1735=CARTESIAN_POINT('',(-0.0150829113554211,-0.0633023237237755,-0.0205704973919191));
#1736=CARTESIAN_POINT('',(0.00133639352861784,-0.0520824683258359,-0.0189936495490525));
#1737=CARTESIAN_POINT('',(-0.0150829113554211,-0.0520824683258359,-0.0189936495490525));
#1738=CARTESIAN_POINT('',(-0.0150829113554211,-0.0558922104537487,0.00811407423799009));
#1739=CARTESIAN_POINT('',(0.00133639352861784,-0.0558922104537487,0.00811407423799009));
#1740=CARTESIAN_POINT('',(0.00594180881977083,0.00234800204634666,0.0162992023159982));
#1741=CARTESIAN_POINT('',(-0.0150829113554211,-0.0615021381527185,0.0073256503165568));
#1742=CARTESIAN_POINT('',(-0.0150829113554211,-0.0576923960248057,-0.0197820734704858));
#1743=CARTESIAN_POINT('',(0.00594180881977083,0.00234800204634666,0.0162992023159982));
#1744=CARTESIAN_POINT('',(0.153578721582889,-0.0627335831522942,0.00715258200842636));
#1745=CARTESIAN_POINT('',(0.149657443165779,-0.0627335831522942,0.00715258200842635));
#1746=CARTESIAN_POINT('',(0.153578721582889,0.031403761357069,0.0203827229824389));
#1747=CARTESIAN_POINT('',(0.149657443165779,0.031403761357069,0.0203827229824389));
#1748=CARTESIAN_POINT('',(0.149657443165779,-0.0156649108976126,0.0137676524954326));
#1749=CARTESIAN_POINT('',(0.153578721582889,-0.0589238410243813,-0.0199551417786162));
#1750=CARTESIAN_POINT('',(0.149657443165779,-0.0589238410243813,-0.0199551417786162));
#1751=CARTESIAN_POINT('',(0.153578721582889,0.0352135034849818,-0.00672500080460373));
#1752=CARTESIAN_POINT('',(0.149657443165779,0.0352135034849818,-0.00672500080460373));
#1753=CARTESIAN_POINT('',(0.149657443165779,-0.0118551687696997,-0.01334007129161));
#1754=CARTESIAN_POINT('',(0.0294321533292532,0.0756178120722945,-0.0010465455501698));
#1755=CARTESIAN_POINT('',(0.120878700166941,0.0756178120722945,-0.0010465455501698));
#1756=CARTESIAN_POINT('',(0.120878700166941,0.0718080699443817,0.0260611782368728));
#1757=CARTESIAN_POINT('',(-0.0620143935084343,0.0756178120722945,-0.0010465455501698));
#1758=CARTESIAN_POINT('',(-0.0620143935084343,0.0718080699443817,0.0260611782368728));
#1759=CARTESIAN_POINT('',(0.0294321533292532,0.0718080699443817,0.0260611782368728));
#1760=CARTESIAN_POINT('',(0.120878700166941,0.0730143556943114,-0.00141243748264281));
#1761=CARTESIAN_POINT('',(0.120878700166941,0.0692046135663986,0.0256952863043997));
#1762=CARTESIAN_POINT('',(0.120878700166941,0.0482834614813328,0.022755010127429));
#1763=CARTESIAN_POINT('',(0.120878700166941,0.0520932036092456,-0.00435271365961364));
#1764=CARTESIAN_POINT('',(-0.0620143935084343,0.0730143556943114,-0.00141243748264281));
#1765=CARTESIAN_POINT('',(-0.0620143935084343,0.0520932036092456,-0.00435271365961364));
#1766=CARTESIAN_POINT('',(-0.0620143935084343,0.0482834614813328,0.022755010127429));
#1767=CARTESIAN_POINT('',(-0.0620143935084343,0.0692046135663986,0.0256952863043997));
#1768=CARTESIAN_POINT('',(0.00594180881977083,0.00234800204634666,0.0162992023159982));
#1769=CARTESIAN_POINT('',(0.0294321533292532,0.0482834614813328,0.022755010127429));
#1770=CARTESIAN_POINT('',(0.0294321533292532,0.0520932036092456,-0.00435271365961364));
#1771=CARTESIAN_POINT('',(-0.1375,0.0647622900230615,0.0275704428871472));
#1772=CARTESIAN_POINT('',(-0.1375,0.0772836474666579,0.0293234992226869));
#1773=CARTESIAN_POINT('',(-0.1375,0.052240932579465,0.0258173865516074));
#1774=CARTESIAN_POINT('',(-0.1375,0.0770611467111019,0.0309066743619778));
#1775=CARTESIAN_POINT('',(-0.1375,0.0520193559934033,0.0273939858832601));
#1776=MECHANICAL_DESIGN_GEOMETRIC_PRESENTATION_REPRESENTATION('',(#1106),
#1778);
#1777=MECHANICAL_DESIGN_GEOMETRIC_PRESENTATION_REPRESENTATION('',(#1107),
#1779);
#1778=(
GEOMETRIC_REPRESENTATION_CONTEXT(3)
GLOBAL_UNCERTAINTY_ASSIGNED_CONTEXT((#1780))
GLOBAL_UNIT_ASSIGNED_CONTEXT((#1786,#1784,#1782))
REPRESENTATION_CONTEXT('Part 2','TOP_LEVEL_ASSEMBLY_PART')
);
#1779=(
GEOMETRIC_REPRESENTATION_CONTEXT(3)
GLOBAL_UNCERTAINTY_ASSIGNED_CONTEXT((#1781))
GLOBAL_UNIT_ASSIGNED_CONTEXT((#1787,#1785,#1783))
REPRESENTATION_CONTEXT('Part 1','TOP_LEVEL_ASSEMBLY_PART')
);
#1780=UNCERTAINTY_MEASURE_WITH_UNIT(LENGTH_MEASURE(1.E-8),#1786,
'DISTANCE_ACCURACY_VALUE','Maximum Tolerance applied to model');
#1781=UNCERTAINTY_MEASURE_WITH_UNIT(LENGTH_MEASURE(1.E-8),#1787,
'DISTANCE_ACCURACY_VALUE','Maximum Tolerance applied to model');
#1782=(
NAMED_UNIT(*)
SI_UNIT($,.STERADIAN.)
SOLID_ANGLE_UNIT()
);
#1783=(
NAMED_UNIT(*)
SI_UNIT($,.STERADIAN.)
SOLID_ANGLE_UNIT()
);
#1784=(
NAMED_UNIT(*)
PLANE_ANGLE_UNIT()
SI_UNIT($,.RADIAN.)
);
#1785=(
NAMED_UNIT(*)
PLANE_ANGLE_UNIT()
SI_UNIT($,.RADIAN.)
);
#1786=(
LENGTH_UNIT()
NAMED_UNIT(*)
SI_UNIT($,.METRE.)
);
#1787=(
LENGTH_UNIT()
NAMED_UNIT(*)
SI_UNIT($,.METRE.)
);
#1788=PRODUCT_DEFINITION_SHAPE('','',#1790);
#1789=PRODUCT_DEFINITION_SHAPE('','',#1791);
#1790=PRODUCT_DEFINITION('','',#1794,#1792);
#1791=PRODUCT_DEFINITION('','',#1795,#1793);
#1792=PRODUCT_DEFINITION_CONTEXT('',#1806,'design');
#1793=PRODUCT_DEFINITION_CONTEXT('',#1807,'design');
#1794=PRODUCT_DEFINITION_FORMATION_WITH_SPECIFIED_SOURCE('','',#1798,
 .NOT_KNOWN.);
#1795=PRODUCT_DEFINITION_FORMATION_WITH_SPECIFIED_SOURCE('','',#1799,
 .NOT_KNOWN.);
#1796=PRODUCT_RELATED_PRODUCT_CATEGORY('','',(#1798));
#1797=PRODUCT_RELATED_PRODUCT_CATEGORY('','',(#1799));
#1798=PRODUCT('Part 2','Part 2','Part 2',(#1802));
#1799=PRODUCT('Part 1','Part 1','Part 1',(#1803));
#1800=PRODUCT_CATEGORY('','');
#1801=PRODUCT_CATEGORY('','');
#1802=PRODUCT_CONTEXT('',#1806,'mechanical');
#1803=PRODUCT_CONTEXT('',#1807,'mechanical');
#1804=APPLICATION_PROTOCOL_DEFINITION('international standard',
'ap242_managed_model_based_3d_engineering',2020,#1806);
#1805=APPLICATION_PROTOCOL_DEFINITION('international standard',
'ap242_managed_model_based_3d_engineering',2020,#1807);
#1806=APPLICATION_CONTEXT('managed model based 3d engineering');
#1807=APPLICATION_CONTEXT('managed model based 3d engineering');
ENDSEC;
END-ISO-10303-21;
